<svg xmlns="http://www.w3.org/2000/svg" width="219.53" height="60.253" viewBox="0 0 219.53 60.253">
  <g id="Aws_logo" transform="translate(-1120.926)">
    <g id="aws_partner" transform="translate(1120.926 0)">
      <path id="Path_1531" data-name="Path 1531" d="M97.68,30.284a14.969,14.969,0,0,0,3.868,1.348,22.694,22.694,0,0,0,5.16.588,16.662,16.662,0,0,0,4.749-.645,10.942,10.942,0,0,0,3.726-1.88,8.89,8.89,0,0,0,2.435-2.958,8.5,8.5,0,0,0,.879-3.9,7.571,7.571,0,0,0-1.557-4.693,10.253,10.253,0,0,0-5.191-3.225L107,13.4a10,10,0,0,1-3.692-1.846,3.181,3.181,0,0,1-1-2.375A3.217,3.217,0,0,1,103.9,6.183a8.8,8.8,0,0,1,4.457-.939A15.573,15.573,0,0,1,114.8,6.535a3.606,3.606,0,0,0,1.288.412c.508,0,.76-.356.76-1.059V4.307a1.9,1.9,0,0,0-.289-1.112,3.281,3.281,0,0,0-1-.824,9.045,9.045,0,0,0-1.408-.585c-.588-.2-1.222-.372-1.906-.529a20.866,20.866,0,0,0-2.168-.382A17.354,17.354,0,0,0,107.825.73a14.942,14.942,0,0,0-4.224.585,10.644,10.644,0,0,0-3.487,1.73A9.025,9.025,0,0,0,97.71,5.8a7.434,7.434,0,0,0-.91,3.723,7.942,7.942,0,0,0,1.673,4.869,10.346,10.346,0,0,0,5.364,3.4l4.866,1.524a8.646,8.646,0,0,1,3.374,1.76,3.241,3.241,0,0,1,.907,2.347,3.548,3.548,0,0,1-1.73,3.165,9.046,9.046,0,0,1-4.895,1.112,19.556,19.556,0,0,1-3.988-.409,17.876,17.876,0,0,1-3.692-1.175c-.352-.152-.637-.268-.85-.349a1.791,1.791,0,0,0-.618-.116c-.508,0-.76.349-.76,1.052v1.7a1.947,1.947,0,0,0,1.229,1.877M41,14.01a25.044,25.044,0,0,0-3.547-.262,12.2,12.2,0,0,0-8.209,2.611A8.619,8.619,0,0,0,26.2,23.25,8.592,8.592,0,0,0,28.664,29.7a9.164,9.164,0,0,0,6.684,2.4,12.376,12.376,0,0,0,9.85-4.636q.529,1.12,1.027,1.966a7.6,7.6,0,0,0,1.2,1.554,1.406,1.406,0,0,0,1,.472,1.7,1.7,0,0,0,.879-.293l2.113-1.408a1.291,1.291,0,0,0,.645-1,1.57,1.57,0,0,0-.233-.76,15.332,15.332,0,0,1-1.086-2.4,9.452,9.452,0,0,1-.382-2.989V11.7q0-5.514-2.787-8.24T38.809.733a20.624,20.624,0,0,0-5.223.64A21.729,21.729,0,0,0,29.368,2.9a2.332,2.332,0,0,0-.939.7,2.177,2.177,0,0,0-.236,1.169V6.415c0,.7.236,1.059.7,1.059a2.376,2.376,0,0,0,.529-.089A8.941,8.941,0,0,0,30.6,6.947,25.276,25.276,0,0,1,34.205,5.8a15.758,15.758,0,0,1,3.607-.438q3.87,0,5.453,1.554t1.584,5.364v2.464q-2-.468-3.844-.734M44.847,19.9a11.346,11.346,0,0,1-.322,2.9,5.363,5.363,0,0,1-1.143,2.142,7.306,7.306,0,0,1-3.168,2.139,10.747,10.747,0,0,1-3.461.618,4.827,4.827,0,0,1-3.516-1.2,4.757,4.757,0,0,1-1.232-3.55,4.721,4.721,0,0,1,1.644-3.868,7.72,7.72,0,0,1,4.981-1.348,24.446,24.446,0,0,1,3.138.205,29.1,29.1,0,0,1,3.078.554V19.9ZM61.676,29.7a2.6,2.6,0,0,0,.7,1.319,2.086,2.086,0,0,0,1.292.322h2.873a2.081,2.081,0,0,0,1.348-.349,2.578,2.578,0,0,0,.645-1.351L73.7,8.058l5.217,21.58a2.541,2.541,0,0,0,.648,1.351,2.069,2.069,0,0,0,1.348.349h2.869a2.084,2.084,0,0,0,1.292-.322,2.588,2.588,0,0,0,.7-1.319l8.089-25.92a7.2,7.2,0,0,0,.239-.82,2.836,2.836,0,0,0,.057-.529.724.724,0,0,0-.82-.82H90.232a2.085,2.085,0,0,0-1.319.322,2.814,2.814,0,0,0-.674,1.319L82.434,25.709,77.154,3.249a2.349,2.349,0,0,0-.645-1.319,2.215,2.215,0,0,0-1.345-.322h-2.7a2.226,2.226,0,0,0-1.348.322,2.36,2.36,0,0,0-.645,1.319l-5.22,22.168L59.624,3.249a2.814,2.814,0,0,0-.674-1.319,2.1,2.1,0,0,0-1.322-.322H54.346a.724.724,0,0,0-.82.82,5.916,5.916,0,0,0,.293,1.348L61.676,29.7Z" transform="translate(-21.965 -0.73)" fill="#d2d2d2"/>
      <path id="Path_1532" data-name="Path 1532" d="M89.484,251.017A99.185,99.185,0,0,1,51.447,258.8,100.279,100.279,0,0,1,1.584,245.568c-1.245-.718-2.165.554-1.133,1.487a73.833,73.833,0,0,0,49.837,19.009c13.772,0,29.769-4.328,40.8-12.467,1.823-1.351.262-3.371-1.6-2.58" transform="translate(-0.005 -205.812)" fill="#f7971d"/>
      <path id="Path_1533" data-name="Path 1533" d="M507.127,236.131c-.973.681-.8,1.625.275,1.494,3.553-.428,11.471-1.379,12.882.428s-1.571,9.255-2.9,12.58c-.4,1.006.466,1.415,1.374.651,5.918-4.952,7.449-15.323,6.237-16.824s-11.55-2.763-17.866,1.67" transform="translate(-424.61 -195.513)" fill="#f7971d"/>
      <path id="Path_1534" data-name="Path 1534" d="M782.881,28.974a.353.353,0,0,1-.4-.4v-18.1a.355.355,0,0,1,.4-.4h.508a.392.392,0,0,1,.451.4l.11,1.093a9.18,9.18,0,0,1,2.384-1.442,6.58,6.58,0,0,1,2.388-.451,4.975,4.975,0,0,1,4.079,1.849,7.92,7.92,0,0,1,1.487,5.081,8.068,8.068,0,0,1-1.571,5.223,5.164,5.164,0,0,1-4.237,1.943A6.553,6.553,0,0,1,784,21.964v6.609a.354.354,0,0,1-.4.4h-.719Zm5.44-6.583a3.906,3.906,0,0,0,3.288-1.427,6.841,6.841,0,0,0,1.109-4.252q0-5.65-4.29-5.648A7.238,7.238,0,0,0,784,12.771v7.808a8.35,8.35,0,0,0,2.129,1.374,5.564,5.564,0,0,0,2.187.438M800.9,23.777a4.012,4.012,0,0,1-2.92-1.049,3.751,3.751,0,0,1-1.08-2.813,3.787,3.787,0,0,1,1.332-3.065,5.459,5.459,0,0,1,3.626-1.122,13.2,13.2,0,0,1,3.812.614V14.1a3.045,3.045,0,0,0-.774-2.334,3.756,3.756,0,0,0-2.557-.7,12.764,12.764,0,0,0-3.893.668,1.343,1.343,0,0,1-.4.079c-.176,0-.265-.113-.265-.346v-.428a.5.5,0,0,1,.347-.533,12.115,12.115,0,0,1,4.451-.823,5.175,5.175,0,0,1,3.474.986,3.729,3.729,0,0,1,1.137,2.983v9.434a.354.354,0,0,1-.4.4h-.561a.384.384,0,0,1-.428-.4l-.1-1.146a7.542,7.542,0,0,1-4.795,1.841m.212-1.385a6.536,6.536,0,0,0,2.189-.415,12.191,12.191,0,0,0,2.371-1.156V17.487a13.411,13.411,0,0,0-3.464-.479q-3.732,0-3.733,2.876a2.489,2.489,0,0,0,.664,1.87,2.766,2.766,0,0,0,1.972.637m10.58,1.091a.356.356,0,0,1-.4-.4v-12.6a.358.358,0,0,1,.4-.4h.508a.393.393,0,0,1,.451.4l.136,1.544a6.735,6.735,0,0,1,1.982-1.587,5.065,5.065,0,0,1,2.2-.466c.286,0,.514.01.693.026a.383.383,0,0,1,.4.428v.664a.291.291,0,0,1-.079.2.269.269,0,0,1-.212.1c-.142,0-.276-.006-.4-.013s-.312-.016-.561-.016a4.965,4.965,0,0,0-2.171.454,5.813,5.813,0,0,0-1.827,1.465V23.08a.354.354,0,0,1-.4.4h-.719Zm13.434.16a3.223,3.223,0,0,1-2.4-.841,3.308,3.308,0,0,1-.828-2.438V11.412h-2.1a.355.355,0,0,1-.4-.4v-.265a.5.5,0,0,1,.079-.318.451.451,0,0,1,.322-.136l2.155-.186.189-3.516a.529.529,0,0,1,.116-.306.383.383,0,0,1,.283-.092h.479a.352.352,0,0,1,.4.4v3.49h3.865a.354.354,0,0,1,.4.4v.535a.354.354,0,0,1-.4.4h-3.865v8.872a2.1,2.1,0,0,0,.466,1.541,2.189,2.189,0,0,0,1.562.451,6.2,6.2,0,0,0,1.361-.133c.192-.034.349-.066.466-.089a1.175,1.175,0,0,1,.252-.044c.2,0,.3.11.3.322v.4c0,.3-.1.491-.3.558a7.433,7.433,0,0,1-2.4.349m5.915-.16a.356.356,0,0,1-.4-.4v-12.6a.358.358,0,0,1,.4-.4h.535a.394.394,0,0,1,.451.4l.107,1.146a11.072,11.072,0,0,1,2.747-1.442,8.449,8.449,0,0,1,2.8-.508,4.03,4.03,0,0,1,2.973,1.03,4.105,4.105,0,0,1,1.026,3.025v9.352a.354.354,0,0,1-.4.4h-.718a.357.357,0,0,1-.406-.4v-8.71a3.869,3.869,0,0,0-.661-2.52,2.668,2.668,0,0,0-2.135-.784,9.207,9.207,0,0,0-5.2,1.7V23.083a.354.354,0,0,1-.4.4h-.719Zm20.416.4a6.043,6.043,0,0,1-4.769-1.8,7.836,7.836,0,0,1-1.6-5.343,7.7,7.7,0,0,1,1.61-5.21,5.674,5.674,0,0,1,4.52-1.853,4.857,4.857,0,0,1,3.72,1.385,5.644,5.644,0,0,1,1.292,3.972,8.925,8.925,0,0,1-.11,1.6.434.434,0,0,1-.451.4h-9.033a6.125,6.125,0,0,0,1.222,4.127,4.74,4.74,0,0,0,3.71,1.332,10.044,10.044,0,0,0,3.647-.664,1.644,1.644,0,0,1,.482-.133.239.239,0,0,1,.186.089.344.344,0,0,1,.082.23v.4a.556.556,0,0,1-.3.561,9.836,9.836,0,0,1-4.211.9m3.277-8.073c.016-.249.029-.542.029-.879a4.1,4.1,0,0,0-.936-2.907,3.612,3.612,0,0,0-2.747-.983q-4.209,0-4.447,4.769Zm5.249,7.675a.356.356,0,0,1-.4-.4v-12.6a.358.358,0,0,1,.4-.4h.508a.392.392,0,0,1,.451.4l.136,1.544a6.692,6.692,0,0,1,1.982-1.587,5.065,5.065,0,0,1,2.2-.466c.286,0,.514.01.694.026a.383.383,0,0,1,.4.428v.664a.291.291,0,0,1-.079.2.269.269,0,0,1-.212.1c-.142,0-.276-.006-.4-.013s-.312-.016-.561-.016a4.978,4.978,0,0,0-2.173.454,5.777,5.777,0,0,0-1.827,1.465V23.08a.354.354,0,0,1-.4.4h-.718Zm-77.1,29.606a.356.356,0,0,1-.4-.4v-12.6a.358.358,0,0,1,.4-.4h.535a.394.394,0,0,1,.451.4l.11,1.146a11,11,0,0,1,2.743-1.442,8.449,8.449,0,0,1,2.8-.508,4.03,4.03,0,0,1,2.973,1.03,4.105,4.105,0,0,1,1.026,3.025v9.352a.354.354,0,0,1-.4.4H792.4a.357.357,0,0,1-.406-.4v-8.71a3.849,3.849,0,0,0-.664-2.52,2.651,2.651,0,0,0-2.132-.784,9.207,9.207,0,0,0-5.2,1.7V52.687a.354.354,0,0,1-.4.4h-.719Zm20.414.4a6.043,6.043,0,0,1-4.769-1.8,7.835,7.835,0,0,1-1.6-5.343,7.7,7.7,0,0,1,1.61-5.21,5.673,5.673,0,0,1,4.52-1.853,4.862,4.862,0,0,1,3.72,1.385,5.644,5.644,0,0,1,1.292,3.972,8.928,8.928,0,0,1-.11,1.6.435.435,0,0,1-.451.4h-9.033a6.107,6.107,0,0,0,1.222,4.127A4.737,4.737,0,0,0,803.4,52.1a10.049,10.049,0,0,0,3.65-.664,1.644,1.644,0,0,1,.482-.133.239.239,0,0,1,.186.089.345.345,0,0,1,.082.23v.4a.556.556,0,0,1-.3.561,9.83,9.83,0,0,1-4.211.9m3.278-8.073c.016-.249.029-.542.029-.879a4.1,4.1,0,0,0-.936-2.907,3.611,3.611,0,0,0-2.747-.983q-4.21,0-4.447,4.769Zm8.98,7.835a3.222,3.222,0,0,1-2.4-.841,3.308,3.308,0,0,1-.828-2.438V41.017h-2.1a.354.354,0,0,1-.4-.4V40.35a.5.5,0,0,1,.079-.318.449.449,0,0,1,.318-.136l2.158-.186.189-3.516a.53.53,0,0,1,.116-.306.383.383,0,0,1,.283-.092h.479a.352.352,0,0,1,.4.4v3.49h3.865a.355.355,0,0,1,.4.4v.535a.354.354,0,0,1-.4.4h-3.865V49.9a2.1,2.1,0,0,0,.466,1.541,2.192,2.192,0,0,0,1.565.451,6.194,6.194,0,0,0,1.358-.133c.192-.034.349-.066.465-.089a1.177,1.177,0,0,1,.252-.044c.2,0,.3.11.3.322v.4c0,.3-.1.491-.3.558a7.56,7.56,0,0,1-2.4.344m8.689-.16a.5.5,0,0,1-.508-.372L819.5,40.322a1.4,1.4,0,0,1-.107-.4c0-.157.107-.239.322-.239h.854a.437.437,0,0,1,.451.349l3.65,11.3L827.9,40.054a.5.5,0,0,1,.5-.372h.983a.5.5,0,0,1,.5.372l3.2,11.355,3.733-11.377a.436.436,0,0,1,.451-.349h.8c.212,0,.319.082.319.239a1.546,1.546,0,0,1-.107.4l-4.34,12.393a.506.506,0,0,1-.508.372h-.876a.5.5,0,0,1-.508-.372l-3.225-11.327-3.2,11.327a.5.5,0,0,1-.5.372h-.881Zm22.121.4a5.714,5.714,0,0,1-4.56-1.877,7.743,7.743,0,0,1-1.625-5.238A7.671,7.671,0,0,1,841.8,41.15a6.5,6.5,0,0,1,9.116,0,7.673,7.673,0,0,1,1.625,5.223,7.743,7.743,0,0,1-1.625,5.238,5.7,5.7,0,0,1-4.555,1.877m0-1.384q4.607,0,4.609-5.729,0-5.7-4.609-5.7t-4.612,5.7q0,5.727,4.612,5.729m10.044.984a.357.357,0,0,1-.4-.4v-12.6a.358.358,0,0,1,.4-.4h.508a.394.394,0,0,1,.451.4l.133,1.544a6.743,6.743,0,0,1,1.985-1.587,5.065,5.065,0,0,1,2.2-.466c.286,0,.514.01.694.026a.382.382,0,0,1,.4.428v.664a.29.29,0,0,1-.079.2.269.269,0,0,1-.212.1c-.142,0-.276-.006-.4-.013s-.312-.016-.561-.016a4.965,4.965,0,0,0-2.171.454,5.811,5.811,0,0,0-1.827,1.465v9.806a.354.354,0,0,1-.4.4h-.719Zm9.169,0a.356.356,0,0,1-.4-.4V33.767a.356.356,0,0,1,.4-.4h.721a.354.354,0,0,1,.4.4V45.655l6.4-5.7a.914.914,0,0,1,.668-.268h.96c.209,0,.322.082.322.239,0,.094-.1.226-.3.4l-6.45,5.7,6.98,6.448c.16.139.239.259.239.346,0,.176-.1.265-.319.265h-1.146a.867.867,0,0,1-.588-.239L866.7,46.533v6.154a.354.354,0,0,1-.4.4h-.719Z" transform="translate(-655.988 -5.307)" fill="#d2d2d2"/>
    </g>
  </g>
</svg>
