<svg xmlns="http://www.w3.org/2000/svg" width="52.919" height="57" viewBox="0 0 52.919 57">
  <g id="Fund_Accounting" data-name="Fund Accounting" transform="translate(-1944.947 -351.613)">
    <path id="Path_11710" data-name="Path 11710" d="M1983.617,380.119c0,7.555.017,15.11-.006,22.665-.012,3.87-1.967,5.811-5.819,5.816q-13.657.018-27.314,0c-3.433-.005-5.516-2.077-5.52-5.525q-.021-22.955,0-45.911c0-3.456,2.084-5.518,5.526-5.522q13.73-.019,27.46,0c3.652.006,5.665,2.028,5.669,5.67Q1983.628,368.714,1983.617,380.119Zm-19.185-24.408c-4.206,0-8.412.032-12.617-.019-1.32-.016-1.829.48-1.785,1.793.065,1.931.049,3.868.005,5.8-.025,1.128.476,1.559,1.565,1.558q12.689-.012,25.379.015c1.1,0,1.576-.464,1.552-1.577-.041-1.933-.063-3.869.007-5.8.048-1.32-.461-1.807-1.78-1.79C1972.651,355.743,1968.541,355.711,1964.432,355.711Zm14.087,40.829c0-1.935-.016-3.871.007-5.807.012-.964-.409-1.45-1.378-1.447-1.79,0-3.581.014-5.371.01-.967,0-1.391.452-1.386,1.428q.03,5.661,0,11.323c-.006,1.076.538,1.464,1.529,1.458,1.694-.01,3.388-.02,5.081,0,1.116.016,1.557-.5,1.531-1.6C1978.489,400.121,1978.52,398.33,1978.519,396.54Zm-24.346-17.449c.871,0,1.742,0,2.614,0a1.221,1.221,0,0,0,1.395-1.431c-.024-1.016-.045-2.034.006-3.048.061-1.215-.523-1.641-1.666-1.613-1.5.037-3,0-4.5.009-1.8.009-1.989.183-1.97,2.009C1950.1,379.613,1949.473,379.06,1954.173,379.09Zm10.163,0c.822,0,1.645-.02,2.466,0,1.1.033,1.6-.455,1.554-1.572-.042-.965-.049-1.936,0-2.9.064-1.208-.5-1.645-1.654-1.614-1.5.04-3-.008-4.5,0-1.815.007-2,.18-1.985,1.992C1960.256,379.538,1959.638,379.072,1964.337,379.092Zm10,0c.822,0,1.646-.034,2.466.008,1.214.062,1.813-.41,1.734-1.69-.059-.963-.04-1.935-.005-2.9.037-1.055-.463-1.5-1.484-1.491-1.5.01-3-.016-4.5-.014-2.03,0-2.17.126-2.152,2.115C1970.433,379.461,1969.771,379.054,1974.332,379.094Zm-20.084,2.05c-.822,0-1.646.034-2.466-.008-1.2-.061-1.826.384-1.746,1.677.06.963.039,1.935,0,2.9-.036,1.038.418,1.516,1.461,1.505,1.548-.016,3.1.017,4.643.012,1.89-.006,2.045-.155,2.029-2.1C1958.14,380.812,1958.762,381.153,1954.248,381.144Zm10.112,0q-1.379,0-2.758,0c-.962,0-1.412.464-1.387,1.437.026,1.015.045,2.034-.006,3.048-.061,1.22.533,1.635,1.671,1.606,1.45-.037,2.9,0,4.354-.007,1.981-.005,2.127-.142,2.112-2.161C1968.314,380.682,1968.845,381.168,1964.36,381.148Zm10.137,0c-.872,0-1.743.013-2.614,0-1.015-.018-1.531.416-1.5,1.478s.025,2.13,0,3.194c-.02.982.461,1.417,1.412,1.414q2.323-.007,4.647,0c1.914,0,2.1-.157,2.068-2.056C1978.448,380.747,1979.2,381.156,1974.5,381.146Zm-20.382,14.217c4.673-.062,4,.562,4.06-4.129,0-.1-.006-.194,0-.29.1-1.164-.4-1.7-1.6-1.671-1.5.038-3,0-4.5.009-1.874.01-2.048.176-2.032,2.106C1950.087,395.775,1949.433,395.367,1954.115,395.363Zm10.264-6.064c-.918,0-1.836,0-2.755,0a1.217,1.217,0,0,0-1.4,1.418c.022,1.014.039,2.032-.014,3.044-.063,1.21.516,1.646,1.659,1.616,1.449-.039,2.9-.01,4.349-.022,2.007-.017,2.121-.127,2.122-2.148C1968.341,388.823,1968.846,389.305,1964.379,389.3Zm-10.252,8.127c-4.679.049-4.025-.566-4.075,4.106,0,.145.005.291-.005.435-.081,1.137.5,1.562,1.578,1.543,1.5-.027,3,0,4.5-.006,1.9-.009,2.065-.159,2.048-2.086C1958.135,397.026,1958.8,397.412,1954.128,397.427Zm10.2,6.077c.823,0,1.646-.02,2.468.005,1.093.033,1.61-.441,1.564-1.564-.042-1.015-.034-2.033,0-3.049.033-1.058-.478-1.491-1.5-1.48-1.549.016-3.1,0-4.646,0-1.814.006-2.011.182-1.988,1.99C1960.281,404,1959.6,403.476,1964.325,403.5Z" transform="translate(0 -0.012)" fill="#f7971d"/>
    <path id="Path_11711" data-name="Path 11711" d="M2096.607,384.107h-8.144v-1.634c0-8.516-.02-17.032.035-25.547a9.868,9.868,0,0,1,.75-2.31,5.8,5.8,0,0,0,.215-1.54c0-1.042.47-1.5,1.511-1.461,1.063.037,2.129.028,3.193,0,.978-.022,1.323.459,1.454,1.4.1.738.587,1.414.769,2.151a21.555,21.555,0,0,1,.333,2.4c.078.043.158.124.24.126,2.469.069,2.731-.358,2.705,2.918-.032,4.055-.008,8.11-.008,12.273h-2.048c0-3.745.026-7.41-.023-11.075a8.951,8.951,0,0,0-.5-2.016,9.392,9.392,0,0,0-.462,2.024c-.034,6.871-.021,13.741-.021,20.612Z" transform="translate(-101.805)" fill="#f7971d"/>
    <path id="Path_11712" data-name="Path 11712" d="M2096.682,484.058h-7.973V471.03h7.973Z" transform="translate(-101.982 -84.712)" fill="#f7971d"/>
    <path id="Path_11713" data-name="Path 11713" d="M2089.843,523.5h7.365c-.97,2.237-1.812,4.325-2.78,6.351-.455.953-1.409.92-1.872-.067C2091.618,527.786,2090.8,525.731,2089.843,523.5Z" transform="translate(-102.786 -121.935)" fill="#f7971d"/>
  </g>
</svg>
