<svg xmlns="http://www.w3.org/2000/svg" xmlns:xlink="http://www.w3.org/1999/xlink" width="344" height="697" viewBox="0 0 344 697">
  <defs>
    <clipPath id="clip-path">
      <rect id="Rectangle_211" data-name="Rectangle 211" width="344" height="697" transform="translate(-0.31)" fill="#fff"/>
    </clipPath>
  </defs>
  <g id="Hedge_Funds" data-name="Hedge Funds" transform="translate(0.31)" clip-path="url(#clip-path)">
    <g id="_60005c27369763073e576e5b_hedge-narrow" data-name="60005c27369763073e576e5b_hedge-narrow" transform="translate(-395.517)">
      <rect id="Rectangle_208" data-name="Rectangle 208" width="341" height="695" transform="translate(398.208)" fill="#0d0d0d"/>
      <g id="Group_17393" data-name="Group 17393" transform="translate(0 230.176)">
        <path id="Path_11579" data-name="Path 11579" d="M34.408,212V425.887m0-213.887H16.07m18.338,0H52.746M34.408,425.887H16.07m18.338,0H52.746M-112.3,212V425.887m0-213.887h18.338m-18.338,0h-18.338M-112.3,425.887h18.338m-18.338,0h-18.338M-38.944,212V425.887m0-213.887h18.338m-18.338,0H-57.282m18.338,213.887h18.338m-18.338,0H-57.282M-75.62,212V425.887m0-213.887h18.338m-18.338,0H-93.957M-75.62,425.887h18.338m-18.338,0H-93.957M-2.268,212V425.887m0-213.887H-20.606m18.338,0H16.07M-2.268,425.887H-20.606m18.338,0H16.07M-20.606,212V425.887M16.07,212V425.887m-73.352,0V212m-36.676,0V425.887m-91.69,0V212m0,213.887h18.338m-18.338,0h-18.338M-185.648,212h18.338m-18.338,0h-18.338m55.014,0V425.887m0-213.887h18.338m-18.338,0H-167.31m18.338,213.887h18.338m-18.338,0H-167.31m36.676,0V212m-36.676,0V425.887m-55.014,0V212m0,213.887h-18.338m18.338,0h18.338M-222.324,212h-18.338m18.338,0h18.338m-36.676,0H-259V425.887h18.338m0-213.887V425.887m36.676,0V212m385.1,0V425.887m0-213.887h18.338m-18.338,0H162.775m18.338,213.887h18.338m-18.338,0H162.775M254.465,212V425.887m0-213.887H272.8m-18.338,0H236.127m18.338,213.887H272.8m-18.338,0H236.127M217.789,212V425.887m0-213.887h18.338m-18.338,0H199.451m18.338,213.887h18.338m-18.338,0H199.451M291.141,212V425.887m0-213.887H272.8m18.338,0h18.338m-18.338,0h-91.69m91.69,213.887H272.8m18.338,0h18.338M272.8,212V425.887M309.479,212h18.338V425.887H309.479m0-213.887V425.887m-73.352,0V212m-36.676,0V425.887m-91.69,0V212m0,213.887H126.1m-18.338,0H89.422M107.761,212H126.1m-18.338,0H89.422m55.014,0V425.887m0-213.887h18.338m-18.338,0H126.1m18.338,213.887h18.338m-18.338,0H126.1m36.676,0V212M126.1,212V425.887m-55.014,0V212m0,213.887H52.746m18.338,0H89.422M71.084,212H52.746m18.338,0H89.422m-36.676,0V425.887m36.676,0V212" transform="translate(375.174 -212)" fill="none" stroke="#fff" stroke-width="0.5"/>
        <path id="Path_11580" data-name="Path 11580" d="M-259,212V425.887H327.817V212H-259Z" transform="translate(375.174 -212)" fill="none" stroke="#fb6233" stroke-width="1"/>
        <rect id="Rectangle_209" data-name="Rectangle 209" width="281.748" height="104.544" transform="translate(406.336 60.217)" fill="#0d0d0d" stroke="#ff6f43" stroke-width="0.5"/>
        <path id="Path_11581" data-name="Path 11581" d="M20.93,323.9h2.489v24.89H20.93Z" transform="translate(399.174 -202.406)" fill="#fb6233"/>
        <path id="Path_11582" data-name="Path 11582" d="M22.174,319.316v4.978m0,0H20.93v24.89h1.244m0-24.89h1.245v24.89H22.174m0,0v4.978" transform="translate(399.174 -202.799)" fill="none" stroke="#fb6233" stroke-width="0.5"/>
        <path id="Path_11583" data-name="Path 11583" d="M124.218,312.9v-4.978m0,0h-1.244v-24.89h1.244m0,24.89h1.244v-24.89h-1.244m0,0v-4.978" transform="translate(407.922 -206.337)" fill="none" stroke="#fb6233" stroke-width="0.5"/>
        <path id="Path_11584" data-name="Path 11584" d="M32.346,296.388v9.956m0,0H31.1v14.934h1.244m0-14.934h1.245v14.934H32.346m0,0v9.956" transform="translate(400.046 -204.765)" fill="none" stroke="#fff" stroke-width="1"/>
        <path id="Path_11585" data-name="Path 11585" d="M134.426,335.822v-9.956m0,0h-1.244V310.931h1.244m0,14.934h1.244V310.931h-1.244m0,0v-9.956" transform="translate(408.798 -204.372)" fill="none" stroke="#fb6233" stroke-width="0.5"/>
        <path id="Path_11586" data-name="Path 11586" d="M42.554,317.027v7.468m0,0H41.31v4.978h1.244m0-4.978H43.8v4.978H42.554m0,0v7.467" transform="translate(400.921 -202.995)" fill="none" stroke="#fb6233" stroke-width="0.5"/>
        <path id="Path_11587" data-name="Path 11587" d="M144.633,314.013v-7.468m0,0h-1.244v-4.978h1.244m0,4.978h1.244v-4.978h-1.244m0,0V294.1" transform="translate(409.673 -204.961)" fill="none" stroke="#fb6233" stroke-width="0.5"/>
        <path id="Path_11588" data-name="Path 11588" d="M52.762,305.566v4.978m0,0H51.518v24.891h1.244m0-24.891h1.245v24.891H52.762m0,0v4.978" transform="translate(401.796 -203.978)" fill="none" stroke="#fb6233" stroke-width="0.5"/>
        <path id="Path_11589" data-name="Path 11589" d="M62.971,287.218V292.2m0,0H61.727v49.78h1.244m0-49.78h1.245v49.78H62.971m0,0v4.978" transform="translate(402.671 -205.551)" fill="none" stroke="#fb6233" stroke-width="0.5"/>
        <path id="Path_11590" data-name="Path 11590" d="M154.841,346.962v-4.978m0,0H153.6V292.2h1.244m0,49.781h1.244V292.2h-1.244m0,0v-4.978" transform="translate(410.548 -205.551)" fill="none" stroke="#fb6233" stroke-width="0.5"/>
        <path id="Path_11591" data-name="Path 11591" d="M236.5,346.962v-4.978m0,0H235.26V292.2H236.5m0,49.781h1.244V292.2H236.5m0,0v-4.978" transform="translate(417.549 -205.551)" fill="none" stroke="#fff" stroke-width="1"/>
        <path id="Path_11592" data-name="Path 11592" d="M246.712,355.665v-4.978m0,0h-1.244V335.754h1.244m0,14.933h1.244V335.754h-1.244m0,0v-4.978" transform="translate(418.424 -201.817)" fill="none" stroke="#fb6233" stroke-width="0.5"/>
        <path id="Path_11593" data-name="Path 11593" d="M255.677,341.591h2.488V291.81h-2.488Z" transform="translate(419.3 -205.157)" fill="#fb6233"/>
        <path id="Path_11594" data-name="Path 11594" d="M256.921,346.962v-4.978m0,0h-1.244V292.2h1.244m0,49.781h1.244V292.2h-1.244m0,0v-4.978" transform="translate(419.3 -205.551)" fill="none" stroke="#fb6233" stroke-width="0.5"/>
        <path id="Path_11595" data-name="Path 11595" d="M163.8,324.689h2.489v-9.956H163.8Z" transform="translate(411.423 -203.192)" fill="#fb6233"/>
        <path id="Path_11596" data-name="Path 11596" d="M165.049,338.118V325.672m0,0H163.8v-9.956h1.244m0,9.956h1.244v-9.956h-1.244m0,0V303.271" transform="translate(411.423 -204.175)" fill="none" stroke="#fb6233" stroke-width="0.5"/>
        <path id="Path_11597" data-name="Path 11597" d="M71.934,319.313h2.489v14.934H71.934Z" transform="translate(403.546 -202.799)" fill="#fb6233"/>
        <path id="Path_11598" data-name="Path 11598" d="M73.178,314.728v4.978m0,0H71.934V334.64h1.244m0-14.934h1.245V334.64H73.178m0,0v4.978" transform="translate(403.546 -203.193)" fill="none" stroke="#fb6233" stroke-width="0.5"/>
        <path id="Path_11599" data-name="Path 11599" d="M83.386,296.388v9.956m0,0H82.142v14.934h1.244m0-14.934h1.245v14.934H83.386m0,0v9.956" transform="translate(404.422 -204.765)" fill="none" stroke="#fb6233" stroke-width="0.5"/>
        <path id="Path_11600" data-name="Path 11600" d="M175.257,335.822v-9.956m0,0h-1.244V310.931h1.244m0,14.934H176.5V310.931h-1.244m0,0v-9.956" transform="translate(412.298 -204.372)" fill="none" stroke="#fff" stroke-width="1"/>
        <path id="Path_11601" data-name="Path 11601" d="M185.465,351.869v-4.978m0,0h-1.244V322h1.244m0,24.889h1.244V322h-1.244m0,0v-4.978" transform="translate(413.173 -202.996)" fill="none" stroke="#fb6233" stroke-width="0.5"/>
        <path id="Path_11602" data-name="Path 11602" d="M93.594,310.152v4.978m0,0H92.35v19.911h1.245m0-19.911h1.244v19.911H93.594m0,0v4.978" transform="translate(405.297 -203.585)" fill="none" stroke="#fff" stroke-width="1"/>
        <path id="Path_11603" data-name="Path 11603" d="M194.429,316.3h2.489V296.392h-2.489Z" transform="translate(414.049 -204.765)" fill="#fb6233"/>
        <path id="Path_11604" data-name="Path 11604" d="M195.673,321.674V316.7m0,0h-1.244V296.785h1.244m0,19.911h1.244V296.785h-1.244m0,0v-4.978" transform="translate(414.049 -205.158)" fill="none" stroke="#fb6233" stroke-width="0.5"/>
        <path id="Path_11605" data-name="Path 11605" d="M103.8,278.049v4.978m0,0h-1.244v12.445H103.8m0-12.445h1.244v12.445H103.8m0,0v4.978" transform="translate(406.172 -206.337)" fill="none" stroke="#fb6233" stroke-width="0.5"/>
        <path id="Path_11606" data-name="Path 11606" d="M205.881,353.179V348.2m0,0h-1.244V335.755h1.244m0,12.446h1.244V335.755h-1.244m0,0v-4.977" transform="translate(414.924 -201.817)" fill="none" stroke="#fb6233" stroke-width="0.5"/>
        <path id="Path_11607" data-name="Path 11607" d="M112.765,298.687h2.489v4.978h-2.489Z" transform="translate(407.047 -204.568)" fill="#fb6233"/>
        <path id="Path_11608" data-name="Path 11608" d="M114.009,294.1v4.978m0,0h-1.244v4.978h1.244m0-4.978h1.244v4.978h-1.244m0,0v4.978" transform="translate(407.047 -204.961)" fill="none" stroke="#fb6233" stroke-width="0.5"/>
        <path id="Path_11609" data-name="Path 11609" d="M216.089,336.545v-4.978m0,0h-1.244v-4.978h1.244m0,4.978h1.244v-4.978h-1.244m0,0v-4.978" transform="translate(415.799 -202.602)" fill="none" stroke="#fb6233" stroke-width="0.5"/>
        <path id="Path_11610" data-name="Path 11610" d="M226.3,312.9v-4.978m0,0h-1.244v-24.89H226.3m0,24.89h1.244v-24.89H226.3m0,0v-4.978" transform="translate(416.674 -206.337)" fill="none" stroke="#fb6233" stroke-width="0.5"/>
        <path id="Path_11611" data-name="Path 11611" d="M-72.592,409V622.887m0-213.887H-90.93m18.338,0h18.338M-72.592,622.887H-90.93m18.338,0h18.338M-219.3,409V622.887m0-213.887h18.338m-18.338,0h-18.338M-219.3,622.887h18.338m-18.338,0h-18.338M-145.943,409V622.887m0-213.887h18.337m-18.337,0h-18.338m18.338,213.887h18.337m-18.337,0h-18.338M-182.619,409V622.887m0-213.887h18.338m-18.338,0h-18.338m18.338,213.887h18.338m-18.338,0h-18.338M-109.268,409V622.887m0-213.887h-18.338m18.338,0H-90.93m-18.338,213.887h-18.338m18.338,0H-90.93M-127.606,409V622.887M-90.93,409V622.887m-73.351,0V409m-36.676,0V622.887m-91.69,0V409m0,213.887h18.338m-18.338,0h-18.338M-292.648,409h18.338m-18.338,0h-18.338m55.014,0V622.887m0-213.887h18.338m-18.338,0H-274.31m18.338,213.887h18.338m-18.338,0H-274.31m36.676,0V409m-36.676,0V622.887m-55.014,0V409m0,213.887h-18.338m18.338,0h18.338M-329.324,409h-18.338m18.338,0h18.338m-36.676,0H-366V622.887h18.338m0-213.887V622.887m36.676,0V409m385.1,0V622.887m0-213.887H92.451m-18.338,0H55.775M74.113,622.887H92.451m-18.338,0H55.775M147.465,409V622.887m0-213.887H165.8m-18.338,0H129.127m18.338,213.887H165.8m-18.338,0H129.127M110.789,409V622.887m0-213.887h18.338m-18.338,0H92.451m18.338,213.887h18.338m-18.338,0H92.451M184.141,409V622.887m0-213.887H165.8m18.338,0h18.338m-18.338,0H92.451m91.69,213.887H165.8m18.338,0h18.338M165.8,409V622.887M202.479,409h18.338V622.887H202.479m0-213.887V622.887m-73.352,0V409m-36.676,0V622.887m-91.69,0V409m0,213.887H19.1m-18.338,0H-17.578M.761,409H19.1M.761,409H-17.578m55.014,0V622.887m0-213.887H55.775m-18.338,0H19.1M37.437,622.887H55.775m-18.338,0H19.1m36.676,0V409M19.1,409V622.887m-55.014,0V409m0,213.887H-54.254m18.338,0h18.338M-35.916,409H-54.254m18.338,0h18.338m-36.676,0V622.887m36.676,0V409" transform="translate(366 -195.11)" fill="none" stroke="#fff" stroke-width="0.5"/>
        <path id="Path_11612" data-name="Path 11612" d="M-366,409V622.887H220.817V409H-366Z" transform="translate(366 -195.11)" fill="none" stroke="#fb6233" stroke-width="1"/>
        <rect id="Rectangle_210" data-name="Rectangle 210" width="149.289" height="103.688" transform="translate(421.537 268.448)" fill="#0d0d0d" stroke="#ff6f43" stroke-width="0.5"/>
        <path id="Path_11613" data-name="Path 11613" d="M22,477h7.886l7.886,29.858h7.886l7.886-14.929h7.886l7.886,41.8H77.2l7.886-17.915h7.886l7.886-20.9h7.886l7.886,11.943h7.886l7.886,29.858h7.886l7.887-50.758h7.886l7.886,32.843h7.886" transform="translate(399.265 -189.28)" fill="none" stroke="#fff" stroke-width="0.5"/>
      </g>
    </g>
  </g>
</svg>
