<svg xmlns="http://www.w3.org/2000/svg" width="565" height="455.224" viewBox="0 0 565 455.224">
  <g id="ic_cloudservice" transform="translate(-1107 -200.397)">
    <g id="Group_1778" data-name="Group 1778" transform="translate(-245.58 -31.485)">
      <g id="Group_1765" data-name="Group 1765" transform="translate(1698.681 231.882)">
        <path id="Path_1536" data-name="Path 1536" d="M1678,292.963c-2.408-.02-4.817,0-6.943,0-9.086-14.165-16.353-17.138-34.295-14.065-3.191-14.273-9.908-26.555-21.883-35.494a55.917,55.917,0,0,0-40.3-11.2,54.987,54.987,0,0,0-32.811,14.955c-11.875,11.173-17.731,25.071-18.008,41.407-8.7,2.514-16.3,6.259-21.824,13.243-5.15,6.509-8.316,13.7-8.23,22.094h4.338c2.242-17.78,12.865-27.97,30.17-31.193.647-5.628.777-10.754,1.876-15.666a51.637,51.637,0,0,1,53.456-40.252,52.414,52.414,0,0,1,34.528,15.948c9.6,10.08,11.72,21.194,14.992,34.128,6.423-3.787,14.688-6.045,21.864-3.078a20.6,20.6,0,0,1,7.664,5.741c.647.755,5.9,9.4,5.51,9.486,1.533-.365,2.7-.738,3.9-.917,25.493-3.794,39.136,19.875,35.073,36.159-3.836,15.357-17.636,24.363-30.048,23.963-9.832-.319-19.681-.093-29.525-.029v4.7c.12,0,.248.02.368.02,10.2.022,20.414.132,30.616-.017a34.976,34.976,0,0,0-.5-69.939Z" transform="translate(-1493.705 -231.882)" fill="#f7971d"/>
      </g>
      <g id="Group_1766" data-name="Group 1766" transform="translate(1897.241 682.633)">
        <path id="Path_1537" data-name="Path 1537" d="M1594.294,415.679v4.034H1574.67v-4.034Z" transform="translate(-1574.67 -415.679)" fill="#fff"/>
      </g>
      <g id="Group_1770" data-name="Group 1770" transform="translate(1497.676 367.965)">
        <g id="Group_1767" data-name="Group 1767">
          <rect id="Rectangle_167" data-name="Rectangle 167" width="261.465" height="4.905" fill="#fff"/>
        </g>
        <g id="Group_1768" data-name="Group 1768" transform="translate(270.843)">
          <rect id="Rectangle_168" data-name="Rectangle 168" width="26.39" height="4.905" fill="#fff"/>
        </g>
        <g id="Group_1769" data-name="Group 1769" transform="translate(305.29)">
          <rect id="Rectangle_169" data-name="Rectangle 169" width="14.252" height="4.905" fill="#fff"/>
        </g>
      </g>
      <g id="Group_1771" data-name="Group 1771" transform="translate(1600.688 579.462)">
        <line id="Line_26" data-name="Line 26" x2="118.452" transform="translate(0 2.452)" fill="#fff"/>
        <rect id="Rectangle_170" data-name="Rectangle 170" width="118.452" height="4.905" fill="#fff"/>
      </g>
      <g id="Group_1772" data-name="Group 1772" transform="translate(1688.714 664.386)">
        <line id="Line_27" data-name="Line 27" x2="58.801" fill="#fff"/>
      </g>
      <g id="Group_1773" data-name="Group 1773" transform="translate(1441.21 632.777)">
        <rect id="Rectangle_171" data-name="Rectangle 171" width="24.17" height="4.904" fill="#ff6f43"/>
      </g>
      <g id="Group_1774" data-name="Group 1774" transform="translate(1379.345 558.627)">
        <path id="Path_1538" data-name="Path 1538" d="M1474.021,400.808c-1.788-.253-3.613-.253-5.476-.37-4.245-7.978-11.441-9.251-19.154-8.348-7.961-19.568-20.382-28.431-37.417-26.781a33.606,33.606,0,0,0-19.283,8.449c-7.465,6.553-10.784,15.065-11.772,24.775-1.131.419-2.085.728-3,1.121-10.151,4.326-15.553,13.886-14.224,24.5a22.617,22.617,0,0,0,9.6,15.468c5.525,3.892,11.556,4.714,18.133,4.7.432,0,.861,0,1.292-.012,2.08-.025,4.162-.061,6.241-.061h17.5v-5.172h-.738c-2.693,0-5.091.025-7.49,0-7.956-.1-15.933.14-23.86-.407a17.016,17.016,0,0,1-15.671-14.7c-1.28-8.748,3.021-16.471,11.026-19.727,1.849-.753,3.737-1.408,5.906-2.217.186-2.055.316-3.836.512-5.611,1.57-14.244,13.444-25.721,27.732-26.418a29.388,29.388,0,0,1,30.059,22.805c.365,1.739,1.02,3.416,1.543,5.131,4.208-.319,8.036-1.15,11.735-.758,4.476.478,6.32,4.731,8.878,8.316,1.913,0,3.914-.047,5.913.01a17.437,17.437,0,0,1,15.641,10.916c2.482,6.57.675,13.273-4.708,18.332-3.532,3.316-7.8,4.2-12.385,4.314-3.617.091-7.237.172-11.3.267.186,1.849.314,3.107.5,4.924,5.26-.248,10.153-.169,14.962-.768,10.975-1.361,19.411-10.631,18.923-21.236C1493.11,410.858,1486.224,402.515,1474.021,400.808Z" transform="translate(-1363.494 -365.115)" fill="#f7971d"/>
      </g>
      <g id="Group_1775" data-name="Group 1775" transform="translate(1352.58 682.201)">
        <rect id="Rectangle_172" data-name="Rectangle 172" width="46.407" height="4.905" fill="#fff"/>
      </g>
      <g id="Group_1776" data-name="Group 1776" transform="translate(1834.559 682.281)">
        <path id="Path_1539" data-name="Path 1539" d="M1549.111,415.551v4.706h.223c17.189.032,33.988.025,50.9.007v-4.714C1582.925,415.534,1566.126,415.527,1549.111,415.551Z" transform="translate(-1549.111 -415.536)" fill="#fff"/>
      </g>
      <g id="Group_1777" data-name="Group 1777" transform="translate(1407.588 338.376)">
        <path id="Path_1540" data-name="Path 1540" d="M1759.716,554.2c9.177,0,18.342.076,27.517.152,10.751.088,14.984-4.255,14.95-14.815-.262-83.2-.145-166.405-.147-249.609,0-1.427.059-2.857-.03-4.279-.365-5.93-4.125-9.778-10.074-10.246-1.827-.142-3.674-.044-5.51-.044q-161.092,0-322.179,0a43.814,43.814,0,0,0-6.116.115c-4.606.662-8.007,3.029-9.219,7.728a24.406,24.406,0,0,0-.787,6.013q-.059,109.2-.012,218.407v5.221h4.87v-.64q0-8.759,0-17.518a1.468,1.468,0,0,1,.194-.9,1.289,1.289,0,0,1,1.042-.373l-1.042.39h341.073c.912.025,1.827.037,2.742.066.027,10.967,0,21.935.01,32.9,0,4.15.23,8,.388,12.122.135,3.588-.611,7.728-4.184,9.437a12.777,12.777,0,0,1-5.552.836l-296.411.4.385,4.768q56.64.026,113.28.054.048,23.411.1,46.827l-72.05.257h-.716v17.8l-153.667.1h-3.561v4.208H1385.6q202.131,0,404.26,0,0-2.181,0-4.358l-67.712-.164h.635V600.693h-2.207l-71.17.007q-.018-23.26-.037-46.523h6.781Zm37.265-66.346H1469.036l-.6.226h-.7l1.3-.226q-4.013,0-8.027,0c-2.516,0-7.7,1.646-7.735-2.185-.159-17.169-.4-34.327-.4-51.5q-.007-27.546-.007-55.094,0-26.17,0-52.337,0-17.742.012-35.487a27.626,27.626,0,0,1,.346-5.471c.723-3.522,2.725-5.216,6.3-5.619a32.712,32.712,0,0,1,3.672-.064q162.026,0,324.048-.01c3.718,0,7.492-.282,9.726,4.179ZM1612.626,555h29.049v45.7h-29.049ZM1716.9,606.322v12.532H1537.778V606.322Z" transform="translate(-1375.01 -275.306)" fill="#fff"/>
      </g>
    </g>
    <g id="Group_1780" data-name="Group 1780" transform="translate(6)">
      <g id="Group_1779" data-name="Group 1779" transform="translate(412.609 92.089)">
        <rect id="Rectangle_173" data-name="Rectangle 173" width="47.298" height="47.298" rx="7.809" transform="translate(934.391 279.911)" fill="none" stroke="#f7971d" stroke-miterlimit="10" stroke-width="4"/>
        <rect id="Rectangle_174" data-name="Rectangle 174" width="47.298" height="47.298" rx="7.809" transform="translate(999.391 279.911)" fill="none" stroke="#f7971d" stroke-miterlimit="10" stroke-width="4"/>
        <rect id="Rectangle_175" data-name="Rectangle 175" width="47.298" height="47.298" rx="7.809" transform="translate(934.391 343.911)" fill="none" stroke="#f7971d" stroke-miterlimit="10" stroke-width="4"/>
        <rect id="Rectangle_176" data-name="Rectangle 176" width="47.298" height="47.298" rx="7.809" transform="translate(999.391 343.911)" fill="none" stroke="#f7971d" stroke-miterlimit="10" stroke-width="4"/>
      </g>
    </g>
  </g>
</svg>
