<svg xmlns="http://www.w3.org/2000/svg" width="1410.995" height="302.592" viewBox="0 0 1410.995 302.592">
  <g id="process" transform="translate(-0.557 -2)">
    <path id="Path_11484" data-name="Path 11484" d="M289.612,15.437V2.407h4.4a5.035,5.035,0,0,1,2.507.554,3.463,3.463,0,0,1,1.45,1.482,4.58,4.58,0,0,1,.471,2.087,4.619,4.619,0,0,1-.471,2.093,3.493,3.493,0,0,1-1.438,1.5,5,5,0,0,1-2.494.554h-3.156v-1.4h3.1a3.4,3.4,0,0,0,1.686-.363,2.165,2.165,0,0,0,.923-.98,3.274,3.274,0,0,0,.292-1.406,3.232,3.232,0,0,0-.292-1.4,2.09,2.09,0,0,0-.929-.967,3.51,3.51,0,0,0-1.7-.356H291.19v11.63Zm11.17,0V5.665h1.5v9.773Zm.763-11.4a1.069,1.069,0,0,1-.757-.3.986.986,0,0,1,0-1.438,1.069,1.069,0,0,1,.757-.3,1.047,1.047,0,0,1,.751.3.972.972,0,0,1,0,1.438A1.047,1.047,0,0,1,301.544,4.036ZM309,15.641A4.088,4.088,0,0,1,305.11,13.2a6.061,6.061,0,0,1-.535-2.6,6,6,0,0,1,.548-2.628,4.329,4.329,0,0,1,1.54-1.788,4.135,4.135,0,0,1,2.316-.649,4.379,4.379,0,0,1,1.858.382,3.56,3.56,0,0,1,1.356,1.069,3.34,3.34,0,0,1,.655,1.6h-1.5a2.329,2.329,0,0,0-.764-1.183A2.283,2.283,0,0,0,309,6.886a2.637,2.637,0,0,0-1.54.458,2.988,2.988,0,0,0-1.025,1.279,4.736,4.736,0,0,0-.363,1.928,5,5,0,0,0,.357,1.972,3,3,0,0,0,1.018,1.3,2.633,2.633,0,0,0,1.552.464,2.684,2.684,0,0,0,1.063-.2,2.191,2.191,0,0,0,.807-.585,2.238,2.238,0,0,0,.471-.916h1.5a3.473,3.473,0,0,1-.63,1.559A3.513,3.513,0,0,1,310.9,15.24,4.244,4.244,0,0,1,309,15.641Zm7.438-3.767-.026-1.858h.306L321,5.665h1.858L318.3,10.271h-.128Zm-1.4,3.563V2.407h1.5v13.03Zm6.209,0L317.433,10.6,318.5,9.559l4.657,5.879Z" transform="translate(34.564)" fill="#b9b9b9"/>
    <path id="Path_11485" data-name="Path 11485" d="M994.307,2.364v13.03h-1.578V2.364Zm4.462,7.151v5.879h-1.5V5.621h1.45V7.148h.128a2.793,2.793,0,0,1,1.044-1.2,3.256,3.256,0,0,1,1.811-.458,3.581,3.581,0,0,1,1.736.407,2.716,2.716,0,0,1,1.153,1.222A4.482,4.482,0,0,1,1005,9.184v6.21h-1.5V9.286a2.563,2.563,0,0,0-.593-1.794,2.141,2.141,0,0,0-1.646-.649,2.624,2.624,0,0,0-1.286.312,2.23,2.23,0,0,0-.883.91A2.994,2.994,0,0,0,998.769,9.515Zm16.625-3.894-3.617,9.773h-1.534l-3.606-9.773h1.624l2.7,7.788h.1l2.7-7.788Zm5.722,9.976a4.575,4.575,0,0,1-2.43-.623,4.175,4.175,0,0,1-1.579-1.756,6.079,6.079,0,0,1-.549-2.634,6.165,6.165,0,0,1,.549-2.647,4.309,4.309,0,0,1,1.545-1.794,4.135,4.135,0,0,1,2.318-.649,4.6,4.6,0,0,1,1.5.254,3.641,3.641,0,0,1,1.355.827,3.8,3.8,0,0,1,.974,1.5,6.291,6.291,0,0,1,.37,2.3v.636h-7.536v-1.3h6a3.3,3.3,0,0,0-.325-1.476,2.547,2.547,0,0,0-.929-1.024,2.62,2.62,0,0,0-1.411-.375,2.693,2.693,0,0,0-1.557.445,2.907,2.907,0,0,0-1,1.145,3.348,3.348,0,0,0-.358,1.514v.865a4.15,4.15,0,0,0,.392,1.877,2.739,2.739,0,0,0,1.075,1.164,3.1,3.1,0,0,0,1.59.394,3.325,3.325,0,0,0,1.075-.166,2.359,2.359,0,0,0,.829-.509,2.232,2.232,0,0,0,.537-.853l1.456.407a3.3,3.3,0,0,1-.773,1.3,3.754,3.754,0,0,1-1.333.865A5.009,5.009,0,0,1,1021.117,15.6Zm13.258-7.788-1.355.382a2.544,2.544,0,0,0-.37-.655A1.877,1.877,0,0,0,1031.99,7a2.4,2.4,0,0,0-1.075-.21,2.58,2.58,0,0,0-1.5.414,1.226,1.226,0,0,0-.594,1.037,1.053,1.053,0,0,0,.414.884,3.382,3.382,0,0,0,1.265.541l1.456.356A3.975,3.975,0,0,1,1033.9,11a2.293,2.293,0,0,1,.649,1.673,2.473,2.473,0,0,1-.493,1.5,3.176,3.176,0,0,1-1.333,1.043,4.882,4.882,0,0,1-1.993.382,4.386,4.386,0,0,1-2.475-.649,2.834,2.834,0,0,1-1.243-1.9l1.422-.356a1.964,1.964,0,0,0,.773,1.183,2.56,2.56,0,0,0,1.489.394,2.771,2.771,0,0,0,1.668-.445,1.32,1.32,0,0,0,.627-1.082,1.147,1.147,0,0,0-.358-.853,2.273,2.273,0,0,0-1.1-.522l-1.624-.382a3.852,3.852,0,0,1-1.971-.986,2.4,2.4,0,0,1-.627-1.686,2.4,2.4,0,0,1,.47-1.463,3.159,3.159,0,0,1,1.277-1,4.461,4.461,0,0,1,1.848-.363,3.641,3.641,0,0,1,2.273.636A3.421,3.421,0,0,1,1034.375,7.81Zm6.685-2.189V6.894H1036V5.621Zm-3.583-2.341h1.5v9.315a1.953,1.953,0,0,0,.179.954.955.955,0,0,0,.482.42,1.987,1.987,0,0,0,.638.1,2.751,2.751,0,0,0,.4-.025c.1-.021.19-.038.257-.051l.3,1.349a3.32,3.32,0,0,1-1.12.178,2.986,2.986,0,0,1-1.243-.274,2.493,2.493,0,0,1-1.008-.833,2.352,2.352,0,0,1-.392-1.412Z" transform="translate(118.786 0.044)" fill="#b9b9b9"/>
    <path id="Path_11486" data-name="Path 11486" d="M466.179,3.807v-1.4h9.772v1.4h-4.1v11.63h-1.578V3.807ZM479.73,15.666a3.973,3.973,0,0,1-1.686-.35,2.77,2.77,0,0,1-1.647-2.653,2.508,2.508,0,0,1,.33-1.362,2.333,2.333,0,0,1,.885-.827,4.637,4.637,0,0,1,1.222-.445q.674-.153,1.355-.242.89-.115,1.445-.172a2.226,2.226,0,0,0,.814-.21.535.535,0,0,0,.261-.509V8.846a1.992,1.992,0,0,0-.515-1.463,2.073,2.073,0,0,0-1.546-.522,2.7,2.7,0,0,0-1.686.471,2.793,2.793,0,0,0-.859,1.005l-1.424-.509a3.416,3.416,0,0,1,1.018-1.387,3.808,3.808,0,0,1,1.4-.7,5.8,5.8,0,0,1,1.5-.2,5.936,5.936,0,0,1,1.081.115,3.46,3.46,0,0,1,1.19.452,2.651,2.651,0,0,1,.961,1.037A3.862,3.862,0,0,1,484.209,9v6.439h-1.5V14.114h-.076a2.653,2.653,0,0,1-.51.681,2.935,2.935,0,0,1-.947.617A3.659,3.659,0,0,1,479.73,15.666Zm.228-1.349a2.976,2.976,0,0,0,1.5-.35,2.383,2.383,0,0,0,.929-.9,2.307,2.307,0,0,0,.318-1.164V10.526a.9.9,0,0,1-.42.21,7.057,7.057,0,0,1-.738.159q-.413.064-.808.115c-.259.03-.468.055-.629.076a5.744,5.744,0,0,0-1.1.248,1.889,1.889,0,0,0-.814.5,1.28,1.28,0,0,0-.306.9,1.346,1.346,0,0,0,.58,1.183A2.593,2.593,0,0,0,479.958,14.318Zm6.991,1.12V5.665h1.5v9.773Zm.764-11.4a1.067,1.067,0,0,1-.757-.3.986.986,0,0,1,0-1.438,1.067,1.067,0,0,1,.757-.3,1.048,1.048,0,0,1,.751.3.972.972,0,0,1,0,1.438A1.048,1.048,0,0,1,487.712,4.036Zm4.99-1.629v13.03h-1.5V2.407Zm6.72,13.234a4.133,4.133,0,0,1-3.874-2.392,5.97,5.97,0,0,1-.553-2.647,6.042,6.042,0,0,1,.553-2.666,4.125,4.125,0,0,1,3.874-2.4,4.121,4.121,0,0,1,3.869,2.4,5.981,5.981,0,0,1,.56,2.666,5.91,5.91,0,0,1-.56,2.647,4.129,4.129,0,0,1-3.869,2.392Zm0-1.349a2.58,2.58,0,0,0,1.655-.515,3.044,3.044,0,0,0,.961-1.355,5.2,5.2,0,0,0,.311-1.82,5.257,5.257,0,0,0-.311-1.826,3.084,3.084,0,0,0-.961-1.368,2.884,2.884,0,0,0-3.309,0,3.084,3.084,0,0,0-.961,1.368A5.257,5.257,0,0,0,496.5,10.6a5.2,5.2,0,0,0,.311,1.82,3.044,3.044,0,0,0,.961,1.355A2.579,2.579,0,0,0,499.422,14.292Zm6.721,1.145V5.665h1.45V7.141h.1a2.345,2.345,0,0,1,.968-1.177,2.846,2.846,0,0,1,1.578-.452c.11,0,.249,0,.413.006s.291.011.376.019V7.064c-.052-.013-.168-.032-.35-.057a3.448,3.448,0,0,0-.567-.045,2.657,2.657,0,0,0-1.272.3,2.25,2.25,0,0,0-.878.814,2.2,2.2,0,0,0-.318,1.177v6.184Z" transform="translate(55.714)" fill="#b9b9b9"/>
    <path id="Path_11487" data-name="Path 11487" d="M631.792,15.394V2.364h1.578v11.63h6.057v1.4Zm13.971.2a4.6,4.6,0,0,1-2.437-.623,4.18,4.18,0,0,1-1.571-1.756,5.985,5.985,0,0,1-.548-2.634,6.069,6.069,0,0,1,.548-2.647,4.313,4.313,0,0,1,1.54-1.794,4.135,4.135,0,0,1,2.316-.649,4.631,4.631,0,0,1,1.507.254,3.736,3.736,0,0,1,1.356.827,3.967,3.967,0,0,1,.973,1.5,6.4,6.4,0,0,1,.363,2.3v.636h-7.533v-1.3h6.005a3.2,3.2,0,0,0-.33-1.476,2.491,2.491,0,0,0-.929-1.024,2.6,2.6,0,0,0-1.412-.375,2.7,2.7,0,0,0-1.553.445,2.939,2.939,0,0,0-1,1.145,3.369,3.369,0,0,0-.349,1.514v.865a4.2,4.2,0,0,0,.382,1.877,2.753,2.753,0,0,0,1.075,1.164,3.153,3.153,0,0,0,1.6.394,3.253,3.253,0,0,0,1.069-.166,2.28,2.28,0,0,0,.833-.509,2.322,2.322,0,0,0,.541-.853l1.45.407a3.211,3.211,0,0,1-.769,1.3,3.758,3.758,0,0,1-1.336.865A4.961,4.961,0,0,1,645.763,15.6Zm10.275,3.665a5.568,5.568,0,0,1-1.87-.28,3.917,3.917,0,0,1-2.125-1.68l1.2-.84c.137.178.308.382.516.611a2.6,2.6,0,0,0,.852.6,3.348,3.348,0,0,0,1.431.261,3.187,3.187,0,0,0,1.954-.573,2.09,2.09,0,0,0,.769-1.794V13.587h-.128a7.905,7.905,0,0,1-.47.662,2.674,2.674,0,0,1-.866.693,3.23,3.23,0,0,1-1.514.3,4.078,4.078,0,0,1-2.125-.56,3.929,3.929,0,0,1-1.483-1.629,5.7,5.7,0,0,1-.541-2.6,6.052,6.052,0,0,1,.529-2.615,4.071,4.071,0,0,1,1.47-1.731,3.877,3.877,0,0,1,2.176-.617,3.066,3.066,0,0,1,1.514.318,2.655,2.655,0,0,1,.866.713q.306.394.47.649h.153V5.621h1.45V15.674a3.4,3.4,0,0,1-.572,2.049,3.261,3.261,0,0,1-1.527,1.164A5.762,5.762,0,0,1,656.039,19.262Zm-.05-5.37a2.7,2.7,0,0,0,1.526-.414,2.565,2.565,0,0,0,.948-1.19,4.809,4.809,0,0,0,.325-1.858,5.074,5.074,0,0,0-.318-1.864,2.8,2.8,0,0,0-.942-1.266,2.839,2.839,0,0,0-3.131.025,2.94,2.94,0,0,0-.947,1.3,5.009,5.009,0,0,0-.312,1.807,4.76,4.76,0,0,0,.318,1.8,2.765,2.765,0,0,0,.955,1.222A2.711,2.711,0,0,0,655.988,13.892Zm9.9,1.731a3.973,3.973,0,0,1-1.686-.35,2.773,2.773,0,0,1-1.648-2.653,2.508,2.508,0,0,1,.331-1.362,2.332,2.332,0,0,1,.885-.827,4.637,4.637,0,0,1,1.222-.445q.674-.153,1.355-.242.89-.115,1.444-.172a2.225,2.225,0,0,0,.814-.21.535.535,0,0,0,.261-.509V8.8a2,2,0,0,0-.515-1.463,2.073,2.073,0,0,0-1.546-.522,2.7,2.7,0,0,0-1.686.471,2.793,2.793,0,0,0-.859,1.005l-1.426-.509A3.429,3.429,0,0,1,663.852,6.4a3.809,3.809,0,0,1,1.4-.7,5.8,5.8,0,0,1,1.5-.2,5.937,5.937,0,0,1,1.082.115,3.46,3.46,0,0,1,1.19.452,2.651,2.651,0,0,1,.961,1.037,3.861,3.861,0,0,1,.382,1.858v6.439h-1.5V14.07h-.076a2.65,2.65,0,0,1-.509.681,2.936,2.936,0,0,1-.947.617A3.659,3.659,0,0,1,665.888,15.623Zm.228-1.349a2.976,2.976,0,0,0,1.5-.35,2.383,2.383,0,0,0,.929-.9,2.307,2.307,0,0,0,.318-1.164V10.482a.9.9,0,0,1-.42.21,7.12,7.12,0,0,1-.738.159q-.413.064-.809.115t-.629.076a5.743,5.743,0,0,0-1.1.248,1.889,1.889,0,0,0-.814.5,1.28,1.28,0,0,0-.306.9,1.348,1.348,0,0,0,.579,1.183A2.6,2.6,0,0,0,666.117,14.274Zm8.492-11.91v13.03h-1.5V2.364Zm9.673,5.446-1.349.382a2.471,2.471,0,0,0-.375-.655A1.824,1.824,0,0,0,681.9,7a2.4,2.4,0,0,0-1.075-.21,2.567,2.567,0,0,0-1.495.414,1.217,1.217,0,0,0-.592,1.037,1.072,1.072,0,0,0,.408.884,3.4,3.4,0,0,0,1.272.541l1.451.356a4,4,0,0,1,1.953.973,2.275,2.275,0,0,1,.643,1.673,2.48,2.48,0,0,1-.484,1.5,3.208,3.208,0,0,1-1.336,1.043,4.878,4.878,0,0,1-2,.382,4.392,4.392,0,0,1-2.475-.649,2.874,2.874,0,0,1-1.241-1.9l1.424-.356a1.986,1.986,0,0,0,.77,1.183,2.584,2.584,0,0,0,1.495.394,2.8,2.8,0,0,0,1.667-.445,1.314,1.314,0,0,0,.624-1.082,1.134,1.134,0,0,0-.357-.853,2.27,2.27,0,0,0-1.094-.522l-1.628-.382A3.883,3.883,0,0,1,677.855,10a2.39,2.39,0,0,1-.624-1.686,2.421,2.421,0,0,1,.465-1.463,3.167,3.167,0,0,1,1.279-1,4.492,4.492,0,0,1,1.845-.363,3.65,3.65,0,0,1,2.278.636A3.429,3.429,0,0,1,684.282,7.81Z" transform="translate(75.552 0.044)" fill="#b9b9b9"/>
    <path id="Path_11488" data-name="Path 11488" d="M88.712,5.665a2,2,0,0,0-.929-1.5,3.564,3.564,0,0,0-2-.534,3.8,3.8,0,0,0-1.514.28,2.418,2.418,0,0,0-1.005.77,1.845,1.845,0,0,0-.356,1.113,1.59,1.59,0,0,0,.248.9,2.2,2.2,0,0,0,.649.617,4.651,4.651,0,0,0,.827.4q.433.153.8.248l1.323.356a11.542,11.542,0,0,1,1.133.369,5.228,5.228,0,0,1,1.2.643,3.273,3.273,0,0,1,.954,1.031,2.971,2.971,0,0,1,.375,1.546,3.429,3.429,0,0,1-.554,1.909,3.768,3.768,0,0,1-1.6,1.355,5.873,5.873,0,0,1-2.551.5,5.972,5.972,0,0,1-2.424-.452,3.862,3.862,0,0,1-1.6-1.26,3.593,3.593,0,0,1-.655-1.877h1.629a2.038,2.038,0,0,0,.5,1.222,2.689,2.689,0,0,0,1.107.713,4.485,4.485,0,0,0,1.451.229,4.271,4.271,0,0,0,1.622-.293,2.786,2.786,0,0,0,1.139-.827,1.96,1.96,0,0,0,.42-1.247,1.528,1.528,0,0,0-.363-1.056,2.662,2.662,0,0,0-.954-.662,10.032,10.032,0,0,0-1.279-.445l-1.6-.458A5.971,5.971,0,0,1,82.273,8a2.752,2.752,0,0,1-.891-2.131,3.16,3.16,0,0,1,.592-1.909,3.929,3.929,0,0,1,1.6-1.272,5.414,5.414,0,0,1,2.259-.458,5.293,5.293,0,0,1,2.24.452A3.873,3.873,0,0,1,89.628,3.9a3.043,3.043,0,0,1,.611,1.762Zm4.1,9.773V5.665h1.5v9.773Zm.763-11.4a1.067,1.067,0,0,1-.757-.3.985.985,0,0,1,0-1.438,1.067,1.067,0,0,1,.757-.3,1.046,1.046,0,0,1,.751.3.972.972,0,0,1,0,1.438A1.046,1.046,0,0,1,93.571,4.036ZM101,19.306a5.567,5.567,0,0,1-1.871-.28,3.918,3.918,0,0,1-2.125-1.68l1.2-.84q.2.267.515.611a2.613,2.613,0,0,0,.853.6,3.347,3.347,0,0,0,1.432.261,3.188,3.188,0,0,0,1.954-.573,2.09,2.09,0,0,0,.769-1.794V13.631H103.6a7.892,7.892,0,0,1-.47.662,2.675,2.675,0,0,1-.865.693,3.232,3.232,0,0,1-1.514.3,4.077,4.077,0,0,1-2.125-.56A3.928,3.928,0,0,1,97.142,13.1a5.7,5.7,0,0,1-.541-2.6,6.045,6.045,0,0,1,.528-2.615A4.076,4.076,0,0,1,98.6,6.155a3.879,3.879,0,0,1,2.176-.617,3.069,3.069,0,0,1,1.514.318,2.654,2.654,0,0,1,.866.713c.2.263.361.479.47.649h.152V5.665h1.451V15.717a3.412,3.412,0,0,1-.572,2.049,3.266,3.266,0,0,1-1.527,1.164A5.76,5.76,0,0,1,101,19.306Zm-.051-5.37a2.7,2.7,0,0,0,1.527-.414,2.565,2.565,0,0,0,.948-1.19,4.809,4.809,0,0,0,.325-1.858,5.074,5.074,0,0,0-.318-1.864,2.8,2.8,0,0,0-.942-1.266,2.838,2.838,0,0,0-3.131.025,2.944,2.944,0,0,0-.948,1.3,5.018,5.018,0,0,0-.312,1.807,4.752,4.752,0,0,0,.318,1.8,2.757,2.757,0,0,0,.954,1.222A2.712,2.712,0,0,0,100.953,13.936Zm8.525-4.377v5.879h-1.5V5.665h1.451V7.192h.128A2.79,2.79,0,0,1,110.6,6a3.246,3.246,0,0,1,1.807-.458,3.562,3.562,0,0,1,1.737.407A2.742,2.742,0,0,1,115.3,7.166a4.54,4.54,0,0,1,.414,2.061v6.21h-1.5V9.329a2.533,2.533,0,0,0-.6-1.794,2.124,2.124,0,0,0-1.642-.649,2.621,2.621,0,0,0-1.286.312,2.232,2.232,0,0,0-.885.91A3.007,3.007,0,0,0,109.479,9.559ZM123.5,15.437V5.665H125v9.773Zm.764-11.4a1.065,1.065,0,0,1-.757-.3.983.983,0,0,1,0-1.438,1.065,1.065,0,0,1,.757-.3,1.044,1.044,0,0,1,.75.3.972.972,0,0,1,0,1.438A1.044,1.044,0,0,1,124.261,4.036Zm4.99,5.523v5.879h-1.5V5.665h1.45V7.192h.128A2.785,2.785,0,0,1,130.37,6a3.24,3.24,0,0,1,1.806-.458,3.562,3.562,0,0,1,1.737.407,2.736,2.736,0,0,1,1.158,1.222,4.525,4.525,0,0,1,.414,2.061v6.21h-1.5V9.329a2.533,2.533,0,0,0-.6-1.794,2.122,2.122,0,0,0-1.642-.649,2.621,2.621,0,0,0-1.286.312,2.239,2.239,0,0,0-.885.91A3.007,3.007,0,0,0,129.251,9.559Z" transform="translate(9.579)" fill="#b9b9b9"/>
    <path id="Path_11489" data-name="Path 11489" d="M1178.67,15.394h-4.02V2.364h4.2a6.358,6.358,0,0,1,3.247.783,5.165,5.165,0,0,1,2.072,2.233,7.875,7.875,0,0,1,.717,3.474,7.874,7.874,0,0,1-.728,3.506,5.139,5.139,0,0,1-2.116,2.252A6.748,6.748,0,0,1,1178.67,15.394Zm-2.441-1.4h2.34a5.216,5.216,0,0,0,2.676-.623,3.806,3.806,0,0,0,1.59-1.775,6.615,6.615,0,0,0,.515-2.742,6.492,6.492,0,0,0-.515-2.717,3.747,3.747,0,0,0-1.534-1.756,4.872,4.872,0,0,0-2.553-.617h-2.52Zm15.2,1.6a4.616,4.616,0,0,1-2.441-.623,4.225,4.225,0,0,1-1.568-1.756,5.921,5.921,0,0,1-.549-2.634,6,6,0,0,1,.549-2.647,4.365,4.365,0,0,1,1.534-1.794,4.134,4.134,0,0,1,2.318-.649,4.612,4.612,0,0,1,1.512.254,3.732,3.732,0,0,1,1.355.827,4.065,4.065,0,0,1,.974,1.5,6.557,6.557,0,0,1,.358,2.3v.636h-7.536v-1.3h6.013a3.162,3.162,0,0,0-.336-1.476,2.468,2.468,0,0,0-.929-1.024,2.567,2.567,0,0,0-1.411-.375,2.682,2.682,0,0,0-1.545.445,2.935,2.935,0,0,0-1.008,1.145,3.491,3.491,0,0,0-.347,1.514v.865a4.153,4.153,0,0,0,.381,1.877,2.738,2.738,0,0,0,1.075,1.164,3.175,3.175,0,0,0,1.6.394,3.209,3.209,0,0,0,1.064-.166,2.307,2.307,0,0,0,.84-.509,2.233,2.233,0,0,0,.538-.853l1.456.407a3.3,3.3,0,0,1-.773,1.3,3.755,3.755,0,0,1-1.333.865A5.009,5.009,0,0,1,1191.424,15.6Zm6.327,3.461V5.621h1.456V7.174h.179a7.272,7.272,0,0,1,.459-.649,2.575,2.575,0,0,1,.851-.713,3.042,3.042,0,0,1,1.512-.318,3.878,3.878,0,0,1,2.172.617,4.072,4.072,0,0,1,1.467,1.75,6.177,6.177,0,0,1,.537,2.672,6.252,6.252,0,0,1-.537,2.691,4.172,4.172,0,0,1-1.456,1.756,3.842,3.842,0,0,1-2.161.617,3.077,3.077,0,0,1-1.5-.312,2.743,2.743,0,0,1-.873-.719,7.56,7.56,0,0,1-.47-.674h-.134v5.166Zm1.478-8.551a5.509,5.509,0,0,0,.325,1.953,2.939,2.939,0,0,0,.952,1.317,2.711,2.711,0,0,0,3.091-.025,3.044,3.044,0,0,0,.963-1.349,5.368,5.368,0,0,0,.325-1.9,5.123,5.123,0,0,0-.325-1.858,2.823,2.823,0,0,0-.952-1.317,2.778,2.778,0,0,0-3.113-.025,2.742,2.742,0,0,0-.952,1.285A5.271,5.271,0,0,0,1199.229,10.508Zm10.94-8.144v13.03h-1.5V2.364Zm6.719,13.234a4.281,4.281,0,0,1-2.318-.63,4.347,4.347,0,0,1-1.557-1.762,5.953,5.953,0,0,1-.549-2.647,6.025,6.025,0,0,1,.549-2.666,4.338,4.338,0,0,1,1.557-1.769,4.281,4.281,0,0,1,2.318-.63,4.228,4.228,0,0,1,2.318.63,4.184,4.184,0,0,1,1.557,1.769,6.025,6.025,0,0,1,.56,2.666,5.954,5.954,0,0,1-.56,2.647,4.142,4.142,0,0,1-3.874,2.392Zm0-1.349a2.569,2.569,0,0,0,1.657-.515,3.048,3.048,0,0,0,.963-1.355,5.076,5.076,0,0,0,.314-1.82,5.128,5.128,0,0,0-.314-1.826,3.087,3.087,0,0,0-.963-1.368,2.875,2.875,0,0,0-3.3,0,3,3,0,0,0-.963,1.368,5.128,5.128,0,0,0-.314,1.826,5.076,5.076,0,0,0,.314,1.82,2.964,2.964,0,0,0,.963,1.355A2.559,2.559,0,0,0,1216.888,14.249Zm7.346,4.785a3.306,3.306,0,0,1-.683-.064,1.806,1.806,0,0,1-.414-.115l.381-1.323a2.176,2.176,0,0,0,1.366-.013c.37-.144.683-.581.952-1.311l.28-.763L1222.5,5.621h1.635l2.7,7.788h.1l2.7-7.788,1.635.025-4.154,11.172a4.43,4.43,0,0,1-.694,1.234,2.724,2.724,0,0,1-.963.738A2.971,2.971,0,0,1,1224.234,19.033Z" transform="translate(140.578 0.044)" fill="#b9b9b9"/>
    <path id="Path_11490" data-name="Path 11490" d="M792.472,15.437V2.407h7.813v1.4H794.05v4.4H799.7v1.4H794.05v5.828Zm15.858-4V5.665h1.5v9.773h-1.5V13.783h-.1a3.211,3.211,0,0,1-1.069,1.266,3.086,3.086,0,0,1-1.832.515,3.265,3.265,0,0,1-1.629-.4,2.81,2.81,0,0,1-1.12-1.222,4.647,4.647,0,0,1-.407-2.068V5.665h1.5v6.108a2.384,2.384,0,0,0,.6,1.705,2.03,2.03,0,0,0,1.54.636,2.557,2.557,0,0,0,1.139-.286,2.487,2.487,0,0,0,.98-.878A2.639,2.639,0,0,0,808.33,11.442Zm5.752-1.883v5.879h-1.5V5.665h1.451V7.192h.126A2.8,2.8,0,0,1,815.2,6a3.246,3.246,0,0,1,1.807-.458,3.562,3.562,0,0,1,1.737.407A2.742,2.742,0,0,1,819.9,7.166a4.54,4.54,0,0,1,.413,2.061v6.21h-1.5V9.329a2.529,2.529,0,0,0-.6-1.794,2.12,2.12,0,0,0-1.641-.649,2.621,2.621,0,0,0-1.286.312,2.233,2.233,0,0,0-.885.91A3.007,3.007,0,0,0,814.083,9.559Zm12.669,6.082a3.827,3.827,0,0,1-2.157-.617,4.171,4.171,0,0,1-1.464-1.756,6.355,6.355,0,0,1-.527-2.691,6.278,6.278,0,0,1,.527-2.672,4.109,4.109,0,0,1,1.47-1.75,3.877,3.877,0,0,1,2.176-.617,3.034,3.034,0,0,1,1.508.318,2.593,2.593,0,0,1,.852.713q.3.394.465.649h.127V2.407h1.5v13.03h-1.45v-1.5H829.6q-.166.267-.471.674a2.8,2.8,0,0,1-.871.719A3.128,3.128,0,0,1,826.752,15.641Zm.2-1.349a2.464,2.464,0,0,0,1.527-.471,2.948,2.948,0,0,0,.947-1.317,5.438,5.438,0,0,0,.325-1.953,5.291,5.291,0,0,0-.318-1.915,2.786,2.786,0,0,0-.942-1.285,2.805,2.805,0,0,0-3.13.025,2.93,2.93,0,0,0-.948,1.317,5.227,5.227,0,0,0-.311,1.858,5.372,5.372,0,0,0,.318,1.9,3.1,3.1,0,0,0,.954,1.349A2.487,2.487,0,0,0,826.956,14.292Zm7.234,1.145V5.665h1.451V7.141h.1a2.349,2.349,0,0,1,.966-1.177,2.849,2.849,0,0,1,1.578-.452c.111,0,.249,0,.414.006s.29.011.375.019V7.064c-.052-.013-.168-.032-.35-.057a3.435,3.435,0,0,0-.566-.045,2.661,2.661,0,0,0-1.273.3,2.258,2.258,0,0,0-.878.814,2.2,2.2,0,0,0-.318,1.177v6.184Zm9.543.229a3.973,3.973,0,0,1-1.686-.35,2.773,2.773,0,0,1-1.648-2.653,2.508,2.508,0,0,1,.331-1.362,2.332,2.332,0,0,1,.885-.827,4.643,4.643,0,0,1,1.221-.445q.675-.153,1.356-.242.89-.115,1.443-.172a2.226,2.226,0,0,0,.815-.21.535.535,0,0,0,.261-.509V8.846a1.992,1.992,0,0,0-.516-1.463,2.07,2.07,0,0,0-1.545-.522,2.7,2.7,0,0,0-1.686.471,2.782,2.782,0,0,0-.859,1.005l-1.426-.509A3.438,3.438,0,0,1,841.7,6.441a3.825,3.825,0,0,1,1.4-.7,5.818,5.818,0,0,1,1.5-.2,5.937,5.937,0,0,1,1.082.115,3.46,3.46,0,0,1,1.19.452,2.667,2.667,0,0,1,.961,1.037A3.862,3.862,0,0,1,848.211,9v6.439h-1.5V14.114h-.077a2.619,2.619,0,0,1-.508.681,2.929,2.929,0,0,1-.948.617A3.65,3.65,0,0,1,843.732,15.666Zm.228-1.349a2.982,2.982,0,0,0,1.5-.35,2.39,2.39,0,0,0,.929-.9,2.307,2.307,0,0,0,.318-1.164V10.526a.9.9,0,0,1-.42.21,7.12,7.12,0,0,1-.738.159c-.277.042-.545.081-.809.115s-.469.055-.63.076a5.752,5.752,0,0,0-1.094.248,1.889,1.889,0,0,0-.814.5,1.28,1.28,0,0,0-.306.9,1.348,1.348,0,0,0,.579,1.183A2.6,2.6,0,0,0,843.961,14.318Zm6.991,1.12V5.665h1.5v9.773Zm.764-11.4a1.065,1.065,0,0,1-.757-.3.983.983,0,0,1,0-1.438,1.065,1.065,0,0,1,.757-.3,1.044,1.044,0,0,1,.75.3.972.972,0,0,1,0,1.438A1.044,1.044,0,0,1,851.715,4.036Zm10.411,3.817-1.349.382a2.5,2.5,0,0,0-.375-.655,1.822,1.822,0,0,0-.662-.534,2.4,2.4,0,0,0-1.075-.21,2.566,2.566,0,0,0-1.495.414,1.217,1.217,0,0,0-.592,1.037,1.069,1.069,0,0,0,.408.884,3.4,3.4,0,0,0,1.272.541l1.451.356a4.007,4.007,0,0,1,1.953.973,2.275,2.275,0,0,1,.643,1.673,2.48,2.48,0,0,1-.484,1.5,3.209,3.209,0,0,1-1.336,1.043,4.881,4.881,0,0,1-2,.382,4.4,4.4,0,0,1-2.476-.649,2.877,2.877,0,0,1-1.24-1.9l1.424-.356a1.981,1.981,0,0,0,.77,1.183,2.584,2.584,0,0,0,1.495.394,2.8,2.8,0,0,0,1.667-.445,1.313,1.313,0,0,0,.623-1.082,1.137,1.137,0,0,0-.356-.853,2.276,2.276,0,0,0-1.094-.522l-1.629-.382a3.884,3.884,0,0,1-1.972-.986,2.39,2.39,0,0,1-.624-1.686A2.421,2.421,0,0,1,855.54,6.9a3.16,3.16,0,0,1,1.279-1,4.491,4.491,0,0,1,1.845-.363,3.655,3.655,0,0,1,2.278.636A3.436,3.436,0,0,1,862.126,7.853Zm6.535,7.788a4.6,4.6,0,0,1-2.437-.623,4.18,4.18,0,0,1-1.571-1.756,5.985,5.985,0,0,1-.548-2.634,6.068,6.068,0,0,1,.548-2.647,4.313,4.313,0,0,1,1.54-1.794,4.135,4.135,0,0,1,2.316-.649,4.637,4.637,0,0,1,1.508.254,3.74,3.74,0,0,1,1.355.827,3.966,3.966,0,0,1,.973,1.5,6.4,6.4,0,0,1,.363,2.3v.636h-7.533v-1.3h6.005a3.2,3.2,0,0,0-.33-1.476,2.492,2.492,0,0,0-.929-1.024,2.6,2.6,0,0,0-1.412-.375,2.694,2.694,0,0,0-1.552.445,2.921,2.921,0,0,0-1,1.145,3.355,3.355,0,0,0-.351,1.514v.865a4.2,4.2,0,0,0,.382,1.877,2.753,2.753,0,0,0,1.075,1.164,3.152,3.152,0,0,0,1.6.394,3.248,3.248,0,0,0,1.069-.166,2.191,2.191,0,0,0,1.374-1.362l1.451.407a3.226,3.226,0,0,1-.77,1.3,3.757,3.757,0,0,1-1.336.865A4.96,4.96,0,0,1,868.661,15.641Z" transform="translate(94.799)" fill="#b9b9b9"/>
    <rect id="Rectangle_182" data-name="Rectangle 182" width="1015.644" height="246.352" transform="translate(228.309 57.989)" fill="none" stroke="#fb6233" stroke-width="0.5"/>
    <path id="Path_11491" data-name="Path 11491" d="M277.794,161.845l26.515-10.686V119.652m-26.515,42.192V130.337m0,31.507-25.653-12.117V118.221m25.653,12.116,26.515-10.685m-26.515,10.685-25.653-12.116m52.169,1.431-25.653-12.117-26.515,10.686" transform="translate(30.076 12.641)" fill="none" stroke="#fff" stroke-width="1"/>
    <path id="Path_11492" data-name="Path 11492" d="M332.889,172.239,359.4,161.554V105.312m-26.515,66.927V116m0,56.241-12.827-6.058V109.939M332.889,116,359.4,105.312M332.889,116l-12.827-6.059m39.342-4.627-12.826-6.058-26.516,10.685" transform="translate(38.212 11.649)" fill="none" stroke="#fff" stroke-width="1"/>
    <path id="Path_11493" data-name="Path 11493" d="M303.951,226.684V214.091m0,12.593-58.99-27.864V186.229m58.99,40.456,60.974-24.573V189.52m-60.974,24.571,60.974-24.571m-60.974,24.571-58.99-27.862m119.965,3.291-58.99-27.864-60.974,24.573" transform="translate(29.216 19.124)" fill="none" stroke="#fff" stroke-width="1"/>
    <path id="Path_11494" data-name="Path 11494" d="M363.72,200.242l-60.974,24.573" transform="translate(36.137 23.746)" fill="none" stroke="#fb6233" stroke-width="0.5"/>
    <path id="Path_11495" data-name="Path 11495" d="M359.625,159.049V102.777" transform="translate(42.951 12.071)" fill="none" stroke="#fb6233" stroke-width="0.5"/>
    <path id="Path_11496" data-name="Path 11496" d="M247.523,146.462V114.926" transform="translate(29.522 13.527)" fill="none" stroke="#fb6233" stroke-width="0.5"/>
    <path id="Path_11497" data-name="Path 11497" d="M359.758,161.891l-26.516,10.686m26.516-10.686V105.65m0,56.241v3.166m0-3.166,3.206,1.515m-3.206-1.515,3.315-1.336,3.315-1.335m-6.629,2.671v-3.165m0,3.165-3.315,1.336m-23.2,9.35V116.335m0,56.242-12.826-6.059m12.826,6.059v3.166m0-3.166,3.207,1.514m-3.207-1.514,3.315-1.336m-3.315,1.336v-3.166m0,3.166-3.206-1.515m3.206,1.515-3.313,1.336m3.313-57.578,26.516-10.685m-26.516,10.685-12.826-6.058m12.826,6.058V119.5m0-3.166,3.207,1.515m-3.207-1.515L336.556,115m-3.315,1.335V113.17m0,3.165-3.206-1.514m3.206,1.514-3.313,1.336m29.83-12.021-12.827-6.058m12.827,6.058v3.166m0-3.166,3.206,1.514m-3.206-1.514,3.315-1.336,3.315-1.336m-6.629,2.672v-3.166m0,3.166-3.206-1.515m3.206,1.515-3.315,1.336m-36.028,59.532V110.277m0,56.241v3.166m0-3.166,3.207,1.515m-3.207-1.515v-3.165m0,3.165L317.209,165m3.206,1.514-3.313,1.336m3.313-57.577,26.515-10.685m-26.515,10.685v-3.166m0,3.166-3.206-1.515m3.206,1.515-3.313,1.336m29.829-12.021,3.207,1.514m-3.207-1.514,3.315-1.336m-3.315,1.336V96.426m0,3.165-3.206-1.515m3.206,1.515-3.313,1.335" transform="translate(37.857 11.311)" fill="none" stroke="#fff" stroke-width="0.5"/>
    <path id="Path_11498" data-name="Path 11498" d="M304.994,151.5l-26.516,10.685M304.994,151.5V119.993m0,31.507v3.166m0-3.166,3.206,1.514m-3.206-1.514,3.315-1.336m-29.831,12.021V130.679m0,31.506-25.653-12.116m25.653,12.116,3.207,1.515m-3.207-1.515v3.166m0-3.166-3.315,1.336m3.315-32.842,26.516-10.686m-26.516,10.686-25.653-12.117m25.653,12.117-3.315,1.336m3.315-1.336,3.207,1.514m23.309-12.2-12.827-6.058-6.413-3.029-6.413-3.029m25.653,12.116,3.206,1.515m-3.206-1.515,3.315-1.336m-3.315,1.336v-3.165m-52.17,33.241V118.562m0,31.507-3.207-1.515-3.207-1.515m6.414,3.03L249.51,151.4m3.315-1.335v3.165m0-34.672,26.516-10.685m-26.516,10.685V115.4m0,3.166-3.207-1.514-3.207-1.515m6.414,3.029L249.51,119.9m29.831-12.021,3.313-1.336m-3.313,1.336v-3.166m0,3.166-3.207-1.515" transform="translate(29.389 12.303)" fill="none" stroke="#fff" stroke-width="0.5"/>
    <path id="Path_11499" data-name="Path 11499" d="M365.278,202.449V189.856m0,12.593L304.3,227.021m60.974-24.571v3.166m0-3.166,3.207,1.514,3.207,1.515m-6.414-3.029,3.315-1.336m-3.315,1.336v-3.166m0,3.166-3.313,1.336M304.3,227.021V214.429m0,12.592-58.99-27.862V186.565m58.99,40.456v3.166m0-3.166,3.207,1.515,3.207,1.514m-6.414-3.029,3.315-1.336m-3.315,1.336v-3.166m0,3.166-3.206-1.514m3.206,1.514-3.313,1.336m3.313-13.928,60.974-24.573M304.3,214.429l-58.99-27.864m58.99,27.864v3.165m0-3.165,3.207,1.514m-3.207-1.514,3.315-1.336m-3.315,1.336v-3.166m0,3.166-3.206-1.515m3.206,1.515-3.313,1.335m64.288-25.907-58.99-27.862m58.99,27.862v3.166m0-3.166,3.207,1.515m-3.207-1.515,3.315-1.336m-3.315,1.336V186.69m0,3.166-3.206-1.514m3.206,1.514-3.313,1.336m-116.651-4.627,60.974-24.571m-60.974,24.571v3.166m0-3.166,3.207,1.515m-3.207-1.515,3.315-1.336m-3.315,1.336V183.4m0,3.166-3.206-1.514m3.206,1.514L242,187.9m64.288-25.907,3.207,1.514m-3.207-1.514,3.315-1.336m-3.315,1.336v-3.166m0,3.166-3.206-1.515m3.206,1.515-3.313,1.336m-57.66,35.829v3.166m0-3.166,3.207,1.514m-3.207-1.514v-3.166m0,3.166-3.206-1.515m3.206,1.515L242,200.494" transform="translate(28.861 18.785)" fill="none" stroke="#fff" stroke-width="0.5"/>
    <path id="Path_11500" data-name="Path 11500" d="M1032.428,224.486V187.6m0,36.888,13.941-6.587m-13.941,6.587-13.941,6.585m69.718-69.816v36.887l-13.941,6.587m13.941-43.473-29.652-11.95m29.652,11.95-3.494,1.646-3.483,1.646M1058.553,149.3l-55.78,26.343L947,201.992M1058.553,149.3l-48.811,23.05L947,201.992m85.43-14.394,6.976-3.292m-6.976,3.292-6.976,3.293m-48.8,59.938V213.942m0,36.887-14.827-5.975m14.827,5.975,13.943-6.585m-13.943-30.3-14.827-5.975m14.827,5.975,6.972-3.293M947,201.992v36.887l14.828,5.975M947,201.992l14.828,5.975m0,0v36.887m42.714-44.084v36.887m0-36.887,6.969-3.293m-6.969,3.293-6.972,3.293m6.972,33.594,13.946-6.585m-13.946,6.585L990.6,244.244m69.713-69.817v36.888m0-36.888,6.976-3.292m-6.976,3.292-6.965,3.293m6.965,33.595,13.953-6.585m-13.953,6.585L1046.37,217.9m27.894-50.059v36.888m0-36.888,6.965-3.293m-6.965,3.293-6.976,3.293m-20.918,9.879V217.9m0-36.887,6.976-3.293m-6.976,3.293-6.965,3.293m-20.918,9.879v36.887m0-36.887,6.965-3.293m-6.965,3.293-6.976,3.292M990.6,207.356v36.888m0-36.888,6.972-3.292m-6.972,3.292-6.972,3.293m97.6-46.1v36.888l-13.941,6.585m13.941-43.473-3.483,1.647-6.976,3.292-6.965,3.293-6.976,3.293-6.976,3.293-6.965,3.292-6.976,3.293-6.965,3.293-6.976,3.292-6.976,3.293-6.965,3.293-6.973,3.292-6.972,3.293L987.112,209,980.14,212.3m87.147-41.161v36.887m-13.941-30.3v36.888m-13.941-30.3v36.887m-13.953-30.3v36.887m-13.941-30.3v36.888m-13.941-30.3V240.95l13.941-6.585m-27.885-23.716v36.888m55.779-26.344,13.941-6.585m-13.941,6.585-13.953,6.585m-13.941,6.587,13.941-6.587m41.835-19.757-13.941,6.587m31.365-14.818-13.941,6.585-13.941,6.585-13.941,6.587-13.941,6.585-13.953,6.585-13.938,6.587-13.944,6.585m90.634-42.808-13.941,6.587-13.953,6.585-13.941,6.585-13.941,6.587-13.941,6.585L994.084,242.6" transform="translate(113.309 17.645)" fill="none" stroke="#fb6233" stroke-width="0.5"/>
    <path id="Path_11501" data-name="Path 11501" d="M1088.2,161.255v36.887l-13.941,6.587-13.953,6.585L1046.37,217.9l-13.941,6.587-13.941,6.585-13.946,6.585L990.6,244.244l-13.943,6.585M1088.2,161.255l-29.652-11.95-55.78,26.343L947,201.992M1088.2,161.255l-13.941,6.585-13.953,6.585-13.941,6.587-13.941,6.585-13.941,6.587-13.946,6.585L990.6,207.356l-13.943,6.587m0,36.887-14.827-5.975L947,238.879V201.992m29.655,48.837V213.942m0,0-14.827-5.975L947,201.992m17.073,31.1v-9.221m-4.5,7.406v-9.221" transform="translate(113.309 17.645)" fill="none" stroke="#fb6233" stroke-width="1"/>
    <path id="Path_11502" data-name="Path 11502" d="M1046.955,153.976V104.831m0,0-3.225,3.187m3.225-3.187,3.225,3.187" transform="translate(124.895 12.318)" fill="none" stroke="#fff" stroke-width="0.5"/>
    <path id="Path_11503" data-name="Path 11503" d="M1009.48,172.21V121.784m0,0-3.27,3.571m3.27-3.571,3.258,3.571" transform="translate(120.401 14.348)" fill="none" stroke="#fff" stroke-width="0.5"/>
    <path id="Path_11504" data-name="Path 11504" d="M972.784,190.59V135.961m0,0-3.268,3.571m3.268-3.571,3.269,3.571" transform="translate(116.006 16.046)" fill="none" stroke="#fff" stroke-width="0.5"/>
    <path id="Path_11505" data-name="Path 11505" d="M977.018,127.61H965.344v-8.584l4.587-.009m7.087,8.593.009-8.593h-7.1m7.087,8.593h8.47v-12.65H969.922l.009,4.057m-2.3.009,1.318-14.685m0,0h2.976m-2.976,0h-.915m4.807,10.619-.916-10.619m0,0h-3.891m3.891,0h.916v-.9h-4.807v.9" transform="translate(115.506 12.151)" fill="none" stroke="#fff" stroke-width="0.5"/>
    <path id="Path_11506" data-name="Path 11506" d="M1049.441,78.335l-8.062,1.736v3.1m20.145-6.322h-6.45m-5.633,0h5.633m-13.695,4.029h8.062m12.083,3.9V75.918h-12.083V83.17m12.083,1.611v5.362h-15.509m15.509-5.362h-12.083m12.083-1.611h-6.45m-5.633,0h5.633m-5.633,0v6.973h-3.427m9.059-13.295V83.17m-13.695,0v6.973h4.636m-4.636-6.973h-1.613m0,0h-6.036v2.014h6.036Zm6.248,6.973h0Z" transform="translate(123.698 8.854)" fill="none" stroke="#fff" stroke-width="0.5"/>
    <path id="Path_11507" data-name="Path 11507" d="M456.024,162.968a12.279,12.279,0,1,0,0-24.558m0,24.558a12.279,12.279,0,1,1,0-24.558m0,24.558H413.233m42.791-24.558H411m0,24.558h2.233m0-27.163v27.163m0,2.977v-2.977m0,0-1.116,1.116m1.116-1.116,1.116-1.116m-2.233-22.325,1.116-1.116,1.116-1.116" transform="translate(49.104 16.028)" fill="none" stroke="#fff" stroke-width="0.5"/>
    <path id="Path_11508" data-name="Path 11508" d="M500.721,195.218h54.327m-54.327-21.583H557.28m0,21.583h-2.232m0-24.187v24.187m0,2.976v-2.976m0,0,1.116,1.115m-1.116-1.115-1.116-1.116m2.233-19.35-1.116-1.116-1.116-1.116" transform="translate(59.852 20.247)" fill="none" stroke="#fff" stroke-width="0.5"/>
    <circle id="Ellipse_442" data-name="Ellipse 442" cx="10.791" cy="10.791" r="10.791" transform="translate(551.643 193.881)" fill="none" stroke="#fff" stroke-width="1"/>
    <path id="Path_11509" data-name="Path 11509" d="M484.554,227.436l1.813,2.676,1.411-2.909Zm39.806-78.8q.647.328,1.278.672l.269-.492q-.64-.349-1.293-.68Zm3.757,2.132q1.224.776,2.382,1.62l.33-.452q-1.172-.855-2.412-1.641Zm4.652,3.394q1.109.926,2.147,1.917l.386-.405q-1.05-1-2.175-1.942Zm4.163,3.972q.978,1.065,1.877,2.185l.437-.35q-.912-1.134-1.9-2.213Zm3.606,4.487q.828,1.181,1.574,2.411l.478-.291Q541.834,163.5,541,162.3Zm2.988,4.92q.667,1.277,1.247,2.595l.512-.225q-.588-1.334-1.262-2.629Zm2.323,5.266q.494,1.352.9,2.736l.537-.158q-.41-1.4-.91-2.769Zm1.619,5.524q.314,1.4.536,2.83l.553-.087q-.225-1.441-.543-2.864Zm.887,5.687q.129,1.433.163,2.876l.56-.013q-.035-1.461-.166-2.913Zm.138,5.753q-.059,1.436-.215,2.872l.558.06q.156-1.455.217-2.909Zm-.618,5.723q-.247,1.413-.59,2.817l.544.133q.346-1.423.6-2.853Zm-1.365,5.591q-.432,1.366-.955,2.718l.522.2q.531-1.367.967-2.752Zm-2.085,5.365q-.3.652-.629,1.3l.5.253q.331-.655.637-1.315Zm-.629,1.3q-.327.647-.672,1.278l.492.269q.349-.64.68-1.293Zm-2.132,3.757q-.776,1.224-1.62,2.382l.452.33q.855-1.172,1.64-2.412Zm-3.394,4.652q-.925,1.109-1.917,2.147l.405.386q1-1.05,1.942-2.175Zm-3.972,4.163q-1.065.978-2.185,1.877l.35.437q1.134-.912,2.213-1.9Zm-4.487,3.606q-1.181.828-2.411,1.574l.291.478q1.245-.756,2.441-1.595Zm-4.919,2.988q-1.278.667-2.6,1.247l.225.512q1.334-.588,2.629-1.262Zm-5.268,2.322q-1.352.494-2.736.9l.158.538q1.4-.41,2.77-.91ZM514.1,230.86q-1.4.314-2.83.536l.087.553q1.441-.225,2.864-.543Zm-5.687.887q-1.433.129-2.876.163l.013.56q1.461-.035,2.913-.166Zm-5.753.138q-1.436-.059-2.872-.215l-.06.558q1.455.156,2.909.217Zm-5.723-.618q-1.413-.247-2.817-.59l-.133.544q1.423.346,2.854.6Zm-5.591-1.365q-1.366-.432-2.718-.955l-.2.522q1.367.531,2.752.967Z" transform="translate(57.915 17.505)" fill="#fb6233"/>
    <path id="Path_11510" data-name="Path 11510" d="M422.963,131.218l.15-3.229,2.721,1.745Zm2.347-3.855q.939-1.193,1.957-2.292l.411.38q-1,1.083-1.928,2.259Zm4.089-4.424q1.112-1.026,2.292-1.955l.347.44q-1.162.914-2.26,1.926Zm4.734-3.724q1.258-.838,2.572-1.57l.273.488q-1.3.722-2.535,1.548Zm5.261-2.934q1.372-.63,2.787-1.149l.193.525q-1.392.512-2.747,1.132Zm5.655-2.076q1.451-.408,2.932-.7l.109.549q-1.458.289-2.889.691Zm5.909-1.171q1.495-.176,3-.236l.022.56q-1.486.059-2.962.233Zm6.019-.236q1.5.059,3.006.237l-.066.555q-1.48-.175-2.962-.233Zm5.983.71q1.471.294,2.929.707l-.153.539q-1.434-.406-2.886-.7Zm5.795,1.644q1.4.521,2.782,1.159l-.235.507q-1.356-.628-2.741-1.141Zm5.466,2.532q.655.37,1.3.765l-.293.478q-.637-.391-1.282-.755Zm1.3.765q.613.378,1.208.774l-.31.466q-.586-.39-1.191-.761Zm3.536,2.451q1.14.889,2.2,1.847l-.376.414q-1.041-.944-2.164-1.819Zm4.248,3.852q.991,1.046,1.895,2.154l-.434.354q-.889-1.092-1.867-2.123Zm3.622,4.446q.821,1.181,1.55,2.414l-.482.284q-.717-1.214-1.529-2.378Zm2.915,4.938q.637,1.288,1.174,2.618l-.52.209q-.529-1.308-1.156-2.58Zm2.148,5.317q.438,1.367.773,2.762l-.545.131q-.329-1.376-.76-2.723Zm1.337,5.577q.228,1.414.354,2.847l-.558.048q-.123-1.409-.349-2.805Zm.495,5.712q.008.717-.01,1.436l-.56-.015q.018-.707.01-1.414Z" transform="translate(50.537 13.272)" fill="#fb6233"/>
    <circle id="Ellipse_443" data-name="Ellipse 443" cx="8.558" cy="8.558" r="8.558" transform="translate(496.572 158.157)" fill="none" stroke="#fff" stroke-width="1"/>
    <path id="Path_11511" data-name="Path 11511" d="M470.812,191.427v-9.3l10.048-4.837.7-1.693-3.684-10.525,6.579-6.578,10.524,3.683,1.694-.7,4.837-10.047h9.3l4.837,10.047,1.694.7,10.524-3.683,6.579,6.578-3.684,10.525.7,1.693,10.047,4.837v9.3l-10.047,4.837-.7,1.693,3.684,10.525-6.579,6.578-10.524-3.683-1.694.7-4.837,10.047h-9.3l-4.837-10.047-1.694-.7-10.524,3.683-6.579-6.578,3.684-10.525-.7-1.693Z" transform="translate(56.269 17.899)" fill="none" stroke="#fff" stroke-width="1"/>
    <path id="Path_11512" data-name="Path 11512" d="M432.43,147.555l2.909-7.014L429.564,130.1l2.645-2.649,10.466,5.721,7.045-2.833m27.506,27.547-2.9,7.017,5.774,10.436-2.649,2.645-10.466-5.722L459.94,175.1M460,130.32l7.014,2.908,10.436-5.774L480.1,130.1l-5.721,10.465,2.833,7.045m-27.547,27.506-7.017-2.9-10.436,5.775-2.645-2.649,5.721-10.465-2.838-7.042m41.874-17.3,2.9,7.017,11.462,3.3,0,3.745-11.445,3.354-2.979,6.985m-38.928-.029-2.908-7.014-11.462-3.3,0-3.745,11.445-3.354,2.973-6.987m31.625,31.708-7.015,2.9-3.3,11.462-3.743,0-3.355-11.445-6.985-2.977m.029-38.928,7.014-2.909,3.3-11.462,3.743,0,3.354,11.445,6.987,2.974" transform="translate(50.299 13.998)" fill="none" stroke="#fff" stroke-width="1"/>
    <path id="Path_11513" data-name="Path 11513" d="M647.723,166.008H704.97" transform="translate(77.46 19.646)" fill="none" stroke="#f96133" stroke-width="1"/>
    <path id="Path_11514" data-name="Path 11514" d="M647.723,174.391H704.97" transform="translate(77.46 20.65)" fill="none" stroke="#f96133" stroke-width="0.5"/>
    <path id="Path_11515" data-name="Path 11515" d="M647.723,178.582H704.97" transform="translate(77.46 21.152)" fill="none" stroke="#f96133" stroke-width="0.5"/>
    <path id="Path_11516" data-name="Path 11516" d="M647.723,182.77H704.97" transform="translate(77.46 21.653)" fill="none" stroke="#f96133" stroke-width="0.5"/>
    <path id="Path_11517" data-name="Path 11517" d="M647.723,186.961H704.97" transform="translate(77.46 22.155)" fill="none" stroke="#f96133" stroke-width="0.5"/>
    <path id="Path_11518" data-name="Path 11518" d="M647.723,191.152H704.97" transform="translate(77.46 22.657)" fill="none" stroke="#f96133" stroke-width="0.5"/>
    <path id="Path_11519" data-name="Path 11519" d="M647.723,195.344H704.97" transform="translate(77.46 23.16)" fill="none" stroke="#f96133" stroke-width="0.5"/>
    <path id="Path_11520" data-name="Path 11520" d="M647.723,199.531H704.97" transform="translate(77.46 23.661)" fill="none" stroke="#f96133" stroke-width="0.5"/>
    <path id="Path_11521" data-name="Path 11521" d="M647.723,203.723H704.97" transform="translate(77.46 24.163)" fill="none" stroke="#f96133" stroke-width="0.5"/>
    <path id="Path_11522" data-name="Path 11522" d="M647.723,207.914H704.97" transform="translate(77.46 24.665)" fill="none" stroke="#f96133" stroke-width="0.5"/>
    <path id="Path_11523" data-name="Path 11523" d="M647.723,212.1h48.8" transform="translate(77.46 25.167)" fill="none" stroke="#f96133" stroke-width="0.5"/>
    <path id="Path_11524" data-name="Path 11524" d="M638.338,242.574V140.28m0,102.294h79.3m-79.3,0h-2.346m2.346,0v-2.346m0,2.346h2.347m-2.347,0v2.346m0-104.64h69.448m-69.448,0h-2.346m2.346,0v-2.346m69.448,12.2h9.854m-9.854,0V140.28m0,9.854H705.44m2.346,0v-2.346m0,2.346h2.347m-2.347,0v2.346m9.854,90.094v-92.44m0,92.44h-2.346m2.346,0v-2.346m0,2.346h2.347m-2.347,0v2.346m0-94.786-9.854-9.854m9.854,9.854h-2.346m2.346,0v-2.346m0,2.346h2.347m-2.347,0v2.346m-9.854-12.2H705.44m2.346,0v-2.346m0,2.346h2.347m-2.347,0v2.346" transform="translate(76.055 16.283)" fill="none" stroke="#fff" stroke-width="0.5"/>
    <path id="Path_11525" data-name="Path 11525" d="M625.346,229.165V126.87m0,102.294H623m2.346,0v-2.346m0,2.346h2.346m-2.346,0v2.346m0-2.346h15.016M625.346,126.87h79.3m-79.3,0H623m2.346,0v-2.347m79.3,2.347v-2.347m0,2.347h2.347m-2.347,0v15.015" transform="translate(74.499 14.676)" fill="none" stroke="#fff" stroke-width="0.5"/>
    <path id="Path_11526" data-name="Path 11526" d="M633.729,237.966V135.67m0,102.3h-2.346m2.346,0V235.62m0,2.346h2.346m-2.346,0v2.346m0-2.346h5.162m-5.162-102.3h79.3m-79.3,0h-2.346m2.346,0v-2.346m79.3,2.346v9.385m0-9.385v-2.346m0,2.346h2.346" transform="translate(75.503 15.731)" fill="none" stroke="#fff" stroke-width="0.5"/>
    <path id="Path_11527" data-name="Path 11527" d="M629.538,233.773V131.479m0,102.295h-2.347m2.347,0v-2.346m0,2.346h2.346m-2.346,0v2.347m0-2.347h10.323M629.538,131.479h79.3m-79.3,0h-2.347m2.347,0v-2.346m79.3,17.831V131.479m0,0v-2.346m0,2.346h2.346" transform="translate(75.001 15.229)" fill="none" stroke="#fff" stroke-width="0.5"/>
    <path id="Path_11528" data-name="Path 11528" d="M638.5,140.027v102.3h79.3V149.881l-9.854-9.854Z" transform="translate(76.356 16.533)" fill="none" stroke="#fff" stroke-width="1"/>
    <path id="Path_11529" data-name="Path 11529" d="M794.687,240.687l-1.859,1.859M830,240.687l-1.859,1.859m-34.38-9.757v8.827h35.309v-8.827" transform="translate(94.841 27.645)" fill="none" stroke="#fb6233" stroke-width="0.5"/>
    <path id="Path_11530" data-name="Path 11530" d="M795.207,177.985V114.957m0,0L792,118.128m3.207-3.171,3.207,3.171" transform="translate(94.742 13.53)" fill="none" stroke="#f96133" stroke-width="0.5"/>
    <path id="Path_11531" data-name="Path 11531" d="M805.082,177.32V105m0,0-3.207,3.171M805.082,105l3.207,3.171" transform="translate(95.925 12.338)" fill="none" stroke="#f96133" stroke-width="0.5"/>
    <path id="Path_11532" data-name="Path 11532" d="M814.961,177.32V105m0,0-3.207,3.171M814.961,105l3.207,3.171" transform="translate(97.108 12.338)" fill="none" stroke="#f96133" stroke-width="0.5"/>
    <path id="Path_11533" data-name="Path 11533" d="M824.836,177.985V114.957m0,0-3.207,3.171m3.207-3.171,3.207,3.171" transform="translate(98.291 13.53)" fill="none" stroke="#f96133" stroke-width="0.5"/>
    <path id="Path_11534" data-name="Path 11534" d="M866.243,183.372v8.153m8.363-12.544c0,2.822-7.9,5.111-17.655,5.111S839.3,181.8,839.3,178.982m35.309,0c0-2.823-7.9-5.111-17.655-5.111s-17.654,2.288-17.654,5.111m35.309,0v8.363c0,2.823-7.9,5.111-17.655,5.111s-17.654-2.288-17.654-5.111v-8.363" transform="translate(100.408 20.587)" fill="none" stroke="#fff" stroke-width="0.5"/>
    <path id="Path_11535" data-name="Path 11535" d="M866.243,125.5v8.153m8.363-12.544c0,2.822-7.9,5.111-17.655,5.111s-17.654-2.289-17.654-5.111m35.309,0c0-2.823-7.9-5.111-17.655-5.111s-17.654,2.288-17.654,5.111m35.309,0v8.363c0,2.822-7.9,5.111-17.655,5.111S839.3,132.3,839.3,129.473v-8.363" transform="translate(100.408 13.655)" fill="none" stroke="#fff" stroke-width="0.5"/>
    <path id="Path_11536" data-name="Path 11536" d="M820.946,184.5v8.153m8.362-12.544c0,2.822-7.9,5.111-17.654,5.111S794,182.933,794,180.111m35.309,0c0-2.823-7.9-5.111-17.654-5.111S794,177.288,794,180.111m35.309,0v8.363c0,2.822-7.9,5.111-17.654,5.111S794,191.3,794,188.473v-8.363" transform="translate(94.982 20.723)" fill="none" stroke="#fff" stroke-width="0.5"/>
    <path id="Path_11537" data-name="Path 11537" d="M820.946,223.5v8.153m8.362-12.544c0,2.822-7.9,5.111-17.654,5.111S794,221.933,794,219.111m35.309,0c0-2.823-7.9-5.111-17.654-5.111S794,216.288,794,219.111m35.309,0v8.363c0,2.822-7.9,5.111-17.654,5.111S794,230.3,794,227.473v-8.363" transform="translate(94.982 25.394)" fill="none" stroke="#fff" stroke-width="0.5"/>
    <path id="Path_11538" data-name="Path 11538" d="M866.243,203.5v8.153m8.363-12.544c0,2.822-7.9,5.111-17.655,5.111s-17.654-2.289-17.654-5.111m35.309,0c0-2.823-7.9-5.111-17.655-5.111s-17.654,2.288-17.654,5.111m35.309,0v8.363c0,2.822-7.9,5.111-17.655,5.111S839.3,210.3,839.3,207.473v-8.363" transform="translate(100.408 22.999)" fill="none" stroke="#fff" stroke-width="0.5"/>
    <path id="Path_11539" data-name="Path 11539" d="M866.243,223.63v8.153m8.363-12.544c0,2.822-7.9,5.111-17.655,5.111S839.3,222.062,839.3,219.24m35.309,0c0-2.823-7.9-5.111-17.655-5.111S839.3,216.417,839.3,219.24m35.309,0V227.6c0,2.822-7.9,5.111-17.655,5.111S839.3,230.424,839.3,227.6V219.24" transform="translate(100.408 25.41)" fill="none" stroke="#fff" stroke-width="0.5"/>
    <path id="Path_11540" data-name="Path 11540" d="M874.606,159.9c0,2.822-7.9,5.111-17.655,5.111S839.3,162.722,839.3,159.9m35.309,0c0-2.823-7.9-5.111-17.655-5.111S839.3,157.077,839.3,159.9m35.309,0v8.363c0,2.823-7.9,5.111-17.655,5.111s-17.654-2.288-17.654-5.111V159.9" transform="translate(100.408 18.302)" fill="none" stroke="#fff" stroke-width="0.5"/>
    <path id="Path_11541" data-name="Path 11541" d="M874.606,140.814c0,2.822-7.9,5.111-17.655,5.111s-17.654-2.289-17.654-5.111m35.309,0c0-2.823-7.9-5.111-17.655-5.111s-17.654,2.288-17.654,5.111m35.309,0v8.363c0,2.823-7.9,5.111-17.655,5.111S839.3,152,839.3,149.176v-8.363" transform="translate(100.408 16.015)" fill="none" stroke="#fff" stroke-width="0.5"/>
    <path id="Path_11542" data-name="Path 11542" d="M829.309,199.814c0,2.822-7.9,5.111-17.654,5.111S794,202.636,794,199.814m35.309,0c0-2.823-7.9-5.111-17.654-5.111S794,196.991,794,199.814m35.309,0v8.363c0,2.823-7.9,5.111-17.654,5.111S794,211,794,208.176v-8.363" transform="translate(94.982 23.083)" fill="none" stroke="#fff" stroke-width="0.5"/>
    <path id="Path_11543" data-name="Path 11543" d="M874.606,178.982c0,2.822-7.9,5.111-17.655,5.111S839.3,181.8,839.3,178.982m35.309,0c0-2.823-7.9-5.111-17.655-5.111s-17.654,2.288-17.654,5.111m35.309,0v8.363c0,2.823-7.9,5.111-17.655,5.111s-17.654-2.288-17.654-5.111v-8.363" transform="translate(100.408 20.587)" fill="none" stroke="#fff" stroke-width="1"/>
    <path id="Path_11544" data-name="Path 11544" d="M874.606,121.111c0,2.822-7.9,5.111-17.655,5.111s-17.654-2.289-17.654-5.111m35.309,0c0-2.823-7.9-5.111-17.655-5.111s-17.654,2.288-17.654,5.111m35.309,0v8.363c0,2.822-7.9,5.111-17.655,5.111S839.3,132.3,839.3,129.473v-8.363" transform="translate(100.408 13.655)" fill="none" stroke="#fff" stroke-width="1"/>
    <path id="Path_11545" data-name="Path 11545" d="M829.309,180.111c0,2.822-7.9,5.111-17.654,5.111S794,182.933,794,180.111m35.309,0c0-2.823-7.9-5.111-17.654-5.111S794,177.288,794,180.111m35.309,0v8.363c0,2.822-7.9,5.111-17.654,5.111S794,191.3,794,188.473v-8.363" transform="translate(94.982 20.723)" fill="none" stroke="#fff" stroke-width="1"/>
    <path id="Path_11546" data-name="Path 11546" d="M829.309,219.111c0,2.822-7.9,5.111-17.654,5.111S794,221.933,794,219.111m35.309,0c0-2.823-7.9-5.111-17.654-5.111S794,216.288,794,219.111m35.309,0v8.363c0,2.822-7.9,5.111-17.654,5.111S794,230.3,794,227.473v-8.363" transform="translate(94.982 25.394)" fill="none" stroke="#fff" stroke-width="1"/>
    <path id="Path_11547" data-name="Path 11547" d="M874.606,199.111c0,2.822-7.9,5.111-17.655,5.111s-17.654-2.289-17.654-5.111m35.309,0c0-2.823-7.9-5.111-17.655-5.111s-17.654,2.288-17.654,5.111m35.309,0v8.363c0,2.822-7.9,5.111-17.655,5.111S839.3,210.3,839.3,207.473v-8.363" transform="translate(100.408 22.999)" fill="none" stroke="#fff" stroke-width="1"/>
    <path id="Path_11548" data-name="Path 11548" d="M874.606,219.24c0,2.822-7.9,5.111-17.655,5.111S839.3,222.062,839.3,219.24m35.309,0c0-2.823-7.9-5.111-17.655-5.111S839.3,216.417,839.3,219.24m35.309,0V227.6c0,2.822-7.9,5.111-17.655,5.111S839.3,230.424,839.3,227.6V219.24" transform="translate(100.408 25.41)" fill="none" stroke="#fff" stroke-width="1"/>
    <path id="Path_11549" data-name="Path 11549" d="M874.98,158.646h6.969m0,0-1.161-1.162m1.161,1.162,1.161,1.161m-1.161-1.161v9.291m-6.969,0h6.969m0,0-1.161-1.161m1.161,1.161,1.161,1.162" transform="translate(104.682 18.625)" fill="none" stroke="#fb6233" stroke-width="0.5"/>
    <path id="Path_11550" data-name="Path 11550" d="M157,177.75h52.63" transform="translate(18.679 21.052)" fill="none" stroke="#fb6233" stroke-width="0.5"/>
    <line id="Line_37" data-name="Line 37" x2="47.031" transform="translate(1243.953 198.802)" fill="none" stroke="#fb6233" stroke-width="0.5"/>
    <path id="Path_11551" data-name="Path 11551" d="M1008.932,108.871h12.082V81.754h-12.082Zm0,0h-8.062V85.1h8.063m12.082-2.417h-12.082m-8.062,3.223h8.063" transform="translate(119.761 9.553)" fill="none" stroke="#fff" stroke-width="0.5"/>
    <line id="Line_38" data-name="Line 38" y2="19.036" transform="translate(1124.416 97.182)" fill="none" stroke="#fff" stroke-width="0.5"/>
    <line id="Line_39" data-name="Line 39" y2="19.036" transform="translate(1132.255 97.182)" fill="none" stroke="#fff" stroke-width="0.5"/>
    <line id="Line_40" data-name="Line 40" y2="19.036" transform="translate(1136.734 97.182)" fill="none" stroke="#fff" stroke-width="0.5"/>
    <path id="Path_11552" data-name="Path 11552" d="M121.938,134.824l-29.654,17.12m14.827,8.562V126.263M92.283,117.7l29.657,51.367m0-17.123L92.283,134.822" transform="translate(10.927 13.859)" fill="none" stroke="#fb6233" stroke-width="4"/>
    <path id="Path_11553" data-name="Path 11553" d="M168.383,207.74l-93.147-44a7.316,7.316,0,0,0-5.855-.17L1.974,190.738a1.44,1.44,0,0,0-.912,1.249m167.243,18.432-38.936,15.69M1.062,191.986a1.445,1.445,0,0,0,.834,1.43l93.147,44a7.308,7.308,0,0,0,5.855.17l28.471-11.473M1.062,191.986v3.541m0,0a1.449,1.449,0,0,1,.912-1.467L69.381,166.9a7.313,7.313,0,0,1,5.855.17l5.746,2.714M1.062,195.527a1.437,1.437,0,0,0,.834,1.212l5.376,2.54,87.771,41.457a7.313,7.313,0,0,0,5.855.17l4.71-1.9,62.7-25.266a1.462,1.462,0,0,0,.077-2.679l-87.4-41.282m-50.673,9.538,84.355,39.843m14.706,6.946-14.706-6.946m0,0,42.037-16.94-3.8,1.53M42.741,185.192l38.241-15.41m-5.353-75.4v56.293a7.312,7.312,0,0,0,4.189,6.611L163.1,196.622a1.463,1.463,0,0,0,2.087-1.322V139.006A7.311,7.311,0,0,0,161,132.4L77.715,93.06A1.462,1.462,0,0,0,75.628,94.382Z" transform="translate(0 10.891)" fill="none" stroke="#fff" stroke-width="0.5"/>
    <path id="Path_11554" data-name="Path 11554" d="M75.115,84.178a1.477,1.477,0,0,1,.333-.132m-.333.132L72.342,85.26m2.773-1.081.333-.132m0,0a1.444,1.444,0,0,1,.987.1l92.786,43.825a7.31,7.31,0,0,1,4.189,6.61v74.21a1.46,1.46,0,0,1-1.023,1.4m0,0-3.173,1.3a2.479,2.479,0,0,0,.942-.841A1.457,1.457,0,0,0,170.3,210V135.791a7.313,7.313,0,0,0-4.188-6.611L73.329,85.355q-.054-.025-.108-.046a1.462,1.462,0,0,0-1.979,1.368v74.21a7.3,7.3,0,0,0,.75,3.226m100.395,46.07.186-.074M1.062,193.055a1.44,1.44,0,0,1,.912-1.249l67.407-27.164a7.335,7.335,0,0,1,2.611-.53M1.062,193.055a1.445,1.445,0,0,0,.834,1.43l93.147,44a7.308,7.308,0,0,0,5.855.17l9.462-3.813,19.009-7.66,38.936-15.69a1.438,1.438,0,0,0,.908-1.213M1.062,193.055v3.54a1.437,1.437,0,0,0,.834,1.213l93.147,44a7.313,7.313,0,0,0,5.855.17l67.407-27.164a1.44,1.44,0,0,0,.908-1.214v-3.322m0,0a1.447,1.447,0,0,0-.831-1.466L156.7,203.291,84.417,169.1l-9.181-4.291a7.315,7.315,0,0,0-3.243-.7m-18.16,31.732-19.559,7.882a1.178,1.178,0,0,0-.063,2.158l32.758,15.472a5.886,5.886,0,0,0,4.717.138l19.559-7.882a1.178,1.178,0,0,0,.063-2.158L58.55,195.983A5.891,5.891,0,0,0,53.832,195.845Z" transform="translate(0 9.822)" fill="none" stroke="#fff" stroke-width="1"/>
    <circle id="Ellipse_444" data-name="Ellipse 444" cx="60.036" cy="60.036" r="60.036" transform="translate(1290.979 137.065)" fill="none" stroke="#fff" stroke-width="1"/>
    <path id="Path_11555" data-name="Path 11555" d="M1183.436,130.41a60.06,60.06,0,0,0,7.917,108.246m-7.917-108.246a59.753,59.753,0,0,1,29.6-7.793,60.621,60.621,0,0,1,6.674.366m-36.27,7.426c-.56,2.128-2.172,6.8-4.166,8.468-2.508,2.084-4.177,13.341-1.668,14.592s2.5,1.667,5.834,6.254,6.248,2.084,9.171,2.918.84,4.586,5.42,4.586,1.668,5.837,8.342,5.837,6.248,4.169,4.166,5-4.166,6.671-4.166,9.172,6.248,16.677,11.254,17.928-.179,7.4-.84,12.09c-.873,6.3-7.5,13.341-3.751,15.843,3,2,5.7,1.667,6.674,1.251-.829-1.251-2-3.67,0-3.336,2.508.418,2.083-5,3.751-5s7.928-4.587,10.011-6.672,12.922-7.921,12.922-12.09,5.834-2.084,5.834-9.172,7.5-.834,5.834-7.5-15.005-5.836-14.591-9.172a6.971,6.971,0,0,0-7.5-7.5c-5.005.417-5.834-4.587-12.508-5s-8.331,0-12.094,1.251-12.922-2.5-9.585-5-7.088.833-4.166-2.085,4.58-8.338,2.083-7.087-6.248,7.087-8.342,3.752-4.166-7.5.84-10.006,12.094-3.752,12.922-1.251,2.083,4.587,3.337,4.169-2.923-5.836-1.254-6.254c3.751-2.084,12.094-2.5,12.508-7.5s5.005-.834,6.674-3.336,5.005,2.918,4.166-2.5-7.917-4.169-7.917-6.671c0-2-1.948-3.091-2.923-3.386m0,0a59.965,59.965,0,0,1,41.174,23.4m0,0c.168,3.752,1.019,11.674,3.024,13.342,2.5,2.084,7.5,7.5,3.751,10.423s-6.26,5-2.923,5a4.03,4.03,0,0,1,4.166,3.752c0,.667,2.676-.132,4.02-.616m-12.038-31.9a59.73,59.73,0,0,1,12.038,31.9m0,0c.1,1.442.157,2.9.157,4.368a60.046,60.046,0,0,1-54.2,59.756m-27.524-3.754a59.946,59.946,0,0,0,21.679,4.033q2.956,0,5.845-.28m-27.524-3.754c6.674-.232,21.522.194,27.524,3.754m-14.591-86.856c2.911-.417,3.751-.833,7.077.834s3.762,2.5.426,2.5S1200.524,155.887,1204.286,155.553Zm12.082,3.336c0-.834,4.177-1.667,4.591-.834S1216.369,159.723,1216.369,158.889Zm10.011,7.5c-1.669-1.251-1.254-2.5,0-2.5S1228.048,167.645,1226.38,166.394Zm8.757-34.6c2.5,1.668,12.508,1.668,7.088,0C1237.88,130.455,1235.685,131.234,1235.136,131.789Zm-54.2,46.278c1.243,0,1.333,2,0,1.667C1180.939,179.735,1179.684,178.068,1180.939,178.068Zm-19.6-19.179c-2.094,0-3.258,14.676-1.254,10.006,2.5-5.837,5.834-2.919,5.42-5C1165.172,162.225,1163.425,158.889,1161.342,158.889Z" transform="translate(137.984 14.448)" fill="none" stroke="#fff" stroke-width="0.5"/>
    <path id="Path_11556" data-name="Path 11556" d="M1192.713,178.754a1.388,1.388,0,1,1-1.389-1.389A1.392,1.392,0,0,1,1192.713,178.754ZM1229.4,194.6a1.389,1.389,0,1,1-1.389-1.389A1.385,1.385,0,0,1,1229.4,194.6Zm-23.348-53.366a1.388,1.388,0,1,1-1.389-1.387A1.385,1.385,0,0,1,1206.049,141.231Zm-18.342,4.169a1.389,1.389,0,1,1-1.389-1.387A1.392,1.392,0,0,1,1187.707,145.4Zm8.331-16.677a1.383,1.383,0,1,1-1.377-1.387A1.381,1.381,0,0,1,1196.038,128.723Zm74.219,45.028a1.388,1.388,0,1,1-1.389-1.389A1.392,1.392,0,0,1,1270.258,173.751Zm-37.524,59.2a1.389,1.389,0,1,1-1.389-1.387A1.391,1.391,0,0,1,1232.734,232.953ZM1184.37,217.11a1.389,1.389,0,1,1-1.389-1.387A1.392,1.392,0,0,1,1184.37,217.11Zm-21.343-54.876a1.389,1.389,0,1,1-1.389-1.387A1.392,1.392,0,0,1,1163.027,162.234Z" transform="translate(138.853 15.013)" fill="none" stroke="#fb6233" stroke-width="0.5"/>
  </g>
</svg>
