<svg xmlns="http://www.w3.org/2000/svg" xmlns:xlink="http://www.w3.org/1999/xlink" width="345" height="697" viewBox="0 0 345 697">
  <defs>
    <clipPath id="clip-path">
      <rect id="Rectangle_215" data-name="Rectangle 215" width="345" height="697" transform="translate(-0.464)" fill="#fff"/>
    </clipPath>
  </defs>
  <g id="Property_Syndicate" data-name="Property Syndicate" transform="translate(0.464)" clip-path="url(#clip-path)">
    <g id="_60005eb8dbb99d73e0d09061_property-syndicates-narrow" data-name="60005eb8dbb99d73e0d09061_property-syndicates-narrow" transform="translate(-342.139 1.767)">
      <rect id="Rectangle_212" data-name="Rectangle 212" width="343" height="695" transform="translate(343.674 0.233)" fill="#0d0d0d"/>
      <g id="Group_17394" data-name="Group 17394" transform="translate(0 230.58)">
        <path id="Path_11614" data-name="Path 11614" d="M-22.7,410V625.075M-22.7,410H-4.311M-22.7,410H-41.1M-22.7,625.075H-4.311m-18.393,0H-41.1M124.443,410V625.075m0-215.075H106.05m18.393,0h18.393M124.443,625.075H106.05m18.393,0h18.393M50.869,410V625.075m0-215.075H32.476m18.393,0H69.263M50.869,625.075H32.476m18.393,0H69.263M87.656,410V625.075m0-215.075H69.263m18.393,0H106.05M87.656,625.075H69.263m18.393,0H106.05M14.083,410V625.075m0-215.075H32.476m-18.393,0H-4.311M14.083,625.075H32.476m-18.393,0H-4.311M32.476,410V625.075M-4.311,410V625.075m73.574,0V410m36.787,0V625.075m91.967,0V410m0,215.075H179.623m18.393,0H216.41M198.016,410H179.623m18.393,0H216.41m-55.18,0V625.075m0-215.075H142.836m18.393,0h18.393M161.229,625.075H142.836m18.393,0h18.393m-36.787,0V410m36.787,0V625.075m55.18,0V410m0,215.075H253.2m-18.393,0H216.41M234.8,410H253.2M234.8,410H216.41m36.787,0H271.59V625.075H253.2M253.2,410V625.075m-36.787,0V410m-386.261,0V625.075m0-215.075h-18.393m18.393,0h18.393m-18.393,215.075h-18.393m18.393,0h18.393M-243.425,410V625.075m0-215.075h-18.393m18.393,0h18.393m-18.393,215.075h-18.393m18.393,0h18.393M-206.638,410V625.075m0-215.075h-18.393m18.393,0h18.393m-18.393,215.075h-18.393m18.393,0h18.393M-280.212,410V625.075m0-215.075h18.393m-18.393,0h-18.393m18.393,0h91.967m-91.967,215.075h18.393m-18.393,0h-18.393M-261.819,410V625.075M-298.606,410H-317V625.075h18.393m0-215.075V625.075m73.574,0V410m36.787,0V625.075m91.967,0V410m0,215.075h-18.393m18.393,0h18.393M-96.278,410h-18.393m18.393,0h18.393m-55.18,0V625.075m0-215.075h-18.393m18.393,0h18.393m-18.393,215.075h-18.393m18.393,0h18.393m-36.787,0V410m36.787,0V625.075m55.18,0V410m0,215.075H-41.1m-18.393,0H-77.884M-59.491,410H-41.1m-18.393,0H-77.884m36.787,0V625.075m-36.787,0V410" transform="translate(316.999 -195.024)" fill="none" stroke="#fff" stroke-width="0.5"/>
        <path id="Path_11615" data-name="Path 11615" d="M33.295,212V426.533m0-214.533H51.688m-18.393,0H14.9M33.295,426.533H51.688m-18.393,0H14.9M180.443,212V426.533m0-214.533H162.049m18.393,0h18.393M180.443,426.533H162.049m18.393,0h18.393M106.868,212V426.533m0-214.533H88.475m18.393,0h18.393M106.868,426.533H88.475m18.393,0h18.393M143.656,212V426.533m0-214.533H125.262m18.394,0h18.393M143.656,426.533H125.262m18.394,0h18.393M70.082,212V426.533m0-214.533H88.475m-18.393,0H51.688M70.082,426.533H88.475m-18.393,0H51.688M88.475,212V426.533M51.688,212V426.533m73.574,0V212m36.787,0V426.533m91.966,0V212m0,214.533H235.622m18.393,0h18.393M254.015,212H235.622m18.393,0h18.393m-55.18,0V426.533m0-214.533H198.836m18.392,0h18.393M217.228,426.533H198.836m18.392,0h18.393m-36.786,0V212m36.786,0V426.533m55.18,0V212m0,214.533H309.2m-18.393,0H272.409M290.8,212H309.2M290.8,212H272.409m36.787,0h18.393V426.533H309.2M309.2,212V426.533m-36.787,0V212m-386.261,0V426.533m0-214.533h-18.393m18.393,0h18.393m-18.393,214.533h-18.393m18.393,0h18.393M-187.426,212V426.533m0-214.533H-205.82m18.393,0h18.393m-18.393,214.533H-205.82m18.393,0h18.393M-150.639,212V426.533m0-214.533h-18.393m18.393,0h18.393m-18.393,214.533h-18.393m18.393,0h18.393M-224.213,212V426.533m0-214.533h18.393m-18.393,0h-18.393m18.393,0h91.967m-91.967,214.533h18.393m-18.393,0h-18.393M-205.82,212V426.533M-242.607,212H-261V426.533h18.393m0-214.533V426.533m73.574,0V212m36.787,0V426.533m91.967,0V212m0,214.533H-58.672m18.393,0h18.393M-40.279,212H-58.672m18.393,0h18.393m-55.18,0V426.533m0-214.533H-95.459m18.393,0h18.393M-77.066,426.533H-95.459m18.393,0h18.393m-36.787,0V212m36.787,0V426.533m55.18,0V212m0,214.533H14.9m-18.393,0H-21.885M-3.492,212H14.9m-18.393,0H-21.885M14.9,212V426.533m-36.787,0V212" transform="translate(321.8 -212)" fill="none" stroke="#fff" stroke-width="0.5"/>
        <path id="Path_11616" data-name="Path 11616" d="M264.1,410.5V624.933H-231" transform="translate(324.372 -194.982)" fill="none" stroke="#fb6233" stroke-width="1.3"/>
        <path id="Path_11617" data-name="Path 11617" d="M327.589,212V426.533H-261V212H327.589Z" transform="translate(321.8 -212)" fill="none" stroke="#fb6233" stroke-width="1.3"/>
        <rect id="Rectangle_213" data-name="Rectangle 213" width="199.775" height="152.003" transform="translate(616.154 181.861) rotate(180)" fill="#0d0d0d" stroke="#ff6f43" stroke-width="1"/>
        <rect id="Rectangle_214" data-name="Rectangle 214" width="157.106" height="177.735" transform="translate(525.875 410.788) rotate(180)" fill="#0d0d0d" stroke="#ff6f43" stroke-width="1.3"/>
        <path id="Path_11618" data-name="Path 11618" d="M158.686,294.422h-8.013v-21.48h15.484v8.873m-7.471,23.816h-8.013v21.48h8.013m0,11.207h-8.013V359.8h8.013m-51.367-86.856H122.8v21.48H107.319Zm0,32.688H122.8v21.48H107.319ZM129,272.942H144.48v21.48H129Zm0,32.688H144.48v21.48H129Zm-21.678,32.687H122.8V359.8H107.319Zm21.678,0H144.48V359.8H129Z" transform="translate(353.378 -206.775)" fill="none" stroke="#fb6233" stroke-width="0.5"/>
        <path id="Path_11619" data-name="Path 11619" d="M172.392,260.316H100.438V370.323m52.351,8.3H100.438v-8.3m0,0h58.837" transform="translate(352.788 -207.858)" fill="none" stroke="#ff6f43" stroke-width="0.5"/>
        <path id="Path_11620" data-name="Path 11620" d="M160.21,378.625H100.438V260.316h71.954v22.371" transform="translate(352.788 -207.858)" fill="none" stroke="#ff6f43" stroke-width="1"/>
        <path id="Path_11621" data-name="Path 11621" d="M155.592,379.608V369.23m65.5-75.878v-9.684h-65.5V369.23m0,0h65.5m0-21.217V354.7m-75.25-97.906-.073-5.584m0,0h75.324v22.862m-75.324-22.862,2.355,2.355m-2.355-2.355-2.355-2.354m80.034,4.709-4.709-4.709" transform="translate(356.472 -208.84)" fill="none" stroke="#fff" stroke-width="0.5"/>
        <path id="Path_11622" data-name="Path 11622" d="M174.232,280.92h-19.6v95.939h65.5V280.92Z" transform="translate(357.434 -206.091)" fill="none" stroke="#fff" stroke-width="1"/>
        <path id="Path_11623" data-name="Path 11623" d="M160.651,291.006H174.66v25.925H160.651Z" transform="translate(357.95 -205.226)" fill="none" stroke="#fff" stroke-width="0.5"/>
        <path id="Path_11624" data-name="Path 11624" d="M160.651,327.341H174.66v25.925H160.651Z" transform="translate(357.95 -202.111)" fill="none" stroke="#fff" stroke-width="0.5"/>
        <path id="Path_11625" data-name="Path 11625" d="M178.715,291.006h14.009v25.925H178.715Z" transform="translate(359.499 -205.226)" fill="none" stroke="#fff" stroke-width="0.5"/>
        <path id="Path_11626" data-name="Path 11626" d="M196.779,291.006h14.009v25.925H196.779Z" transform="translate(361.048 -205.226)" fill="none" stroke="#fff" stroke-width="0.5"/>
        <path id="Path_11627" data-name="Path 11627" d="M178.715,327.341h14.009v25.925H178.715Z" transform="translate(359.499 -202.111)" fill="none" stroke="#fff" stroke-width="0.5"/>
        <path id="Path_11628" data-name="Path 11628" d="M196.779,327.341h14.009v25.925H196.779Z" transform="translate(361.048 -202.111)" fill="none" stroke="#fff" stroke-width="0.5"/>
        <path id="Path_11629" data-name="Path 11629" d="M117.931,494.253v2.734l-.008,77.918L88.632,588.574m29.3-94.321L88.64,507.923m29.291-13.669-15.41-6.461m15.41,6.461L81.3,478.9m7.339,29.027v2.734l-.007,77.918m.007-80.652L52.009,492.565m36.623,96.009-9.158-3.839L70.316,580.9,52,573.216l.009-77.918v-2.734m0,0L81.3,478.9m65.158-21.535v3.155l-.009,93.253-28.556,13.326M146.459,457.36l-43.937,20.5m43.937-20.5L109.824,442l-43.937,20.5m36.634,25.286L81.3,478.9m21.221,8.9v-9.928m0,0L65.887,462.506m36.635,15.358L65.891,462.506m0,0v23.582m80.572-28.731L109.828,442" transform="translate(348.635 -192.281)" fill="none" stroke="#f5f5f5" stroke-width="1"/>
        <path id="Path_11630" data-name="Path 11630" d="M73.609,559.784v13.669l-9.158-3.839V555.944m9.157,3.839V546.948l-9.158-3.839v12.834m9.159-28.115v9.328l-9.158-3.84V506.7l9.158,3.84v17.286m-13.449,26.19v13.671L51,563.849V550.18m9.157,3.839V541.184L51,537.344V550.18m9.159-28.115v9.326L51,527.552V500.938l9.158,3.839v17.286m25.48-11.579,8.787-4.1v16.4l0,9.326-8.788,4.1,0-9.326Zm0,37.151,8.787-4.1,0,12.06v13.669l-8.787,4.1v-13.67ZM97.36,505.012l8.787-4.1v16.4l0,9.326-8.787,4.1v-9.326Zm0,37.152,8.787-4.1v25.731l-8.788,4.1V554.224Z" transform="translate(348.549 -187.23)" fill="none" stroke="#f5f5f5" stroke-width="0.5"/>
      </g>
    </g>
  </g>
</svg>
