<svg xmlns="http://www.w3.org/2000/svg" xmlns:xlink="http://www.w3.org/1999/xlink" width="345" height="697" viewBox="0 0 345 697">
  <defs>
    <clipPath id="clip-path">
      <rect id="Rectangle_203" data-name="Rectangle 203" width="345" height="697" fill="#fff"/>
    </clipPath>
  </defs>
  <g id="SPVs" clip-path="url(#clip-path)">
    <g id="_60005eb8d7ceecc08c407e27_spvs-narrow" data-name="60005eb8d7ceecc08c407e27_spvs-narrow" transform="translate(-323.549 0.883)">
      <rect id="Rectangle_200" data-name="Rectangle 200" width="343" height="695" transform="translate(324.549 0.117)" fill="#0d0d0d"/>
      <g id="Group_17391" data-name="Group 17391" transform="translate(0 230.378)">
        <path id="Path_11559" data-name="Path 11559" d="M-4.705,409V624.075m0-215.075H13.688m-18.393,0H-23.1M-4.705,624.075H13.688m-18.393,0H-23.1M142.443,409V624.075m0-215.075H124.049m18.394,0h18.393M142.443,624.075H124.049m18.394,0h18.393M68.868,409V624.075m0-215.075H50.475m18.393,0H87.262M68.868,624.075H50.475m18.393,0H87.262M105.655,409V624.075m0-215.075H87.262m18.393,0h18.393M105.655,624.075H87.262m18.393,0h18.393M32.082,409V624.075m0-215.075H50.475m-18.393,0H13.688M32.082,624.075H50.475m-18.393,0H13.688M50.475,409V624.075M13.688,409V624.075m73.574,0V409m36.787,0V624.075m91.967,0V409m0,215.075H197.622m18.393,0h18.393M216.015,409H197.622m18.393,0h18.393m-55.18,0V624.075m0-215.075H160.836m18.392,0h18.393M179.228,624.075H160.836m18.392,0h18.393m-36.786,0V409m36.786,0V624.075m55.18,0V409m0,215.075H271.2m-18.393,0H234.409M252.8,409H271.2M252.8,409H234.409m36.787,0h18.393V624.075H271.2M271.2,409V624.075m-36.787,0V409m-386.261,0V624.075m0-215.075h-18.393m18.393,0h18.393m-18.393,215.075h-18.393m18.393,0h18.393M-225.426,409V624.075m0-215.075H-243.82m18.393,0h18.393m-18.393,215.075H-243.82m18.393,0h18.393M-188.639,409V624.075m0-215.075h-18.393m18.393,0h18.393m-18.393,215.075h-18.393m18.393,0h18.393M-262.213,409V624.075m0-215.075h18.393m-18.393,0h-18.393m18.393,0h91.967m-91.967,215.075h18.393m-18.393,0h-18.393M-243.82,409V624.075M-280.607,409H-299V624.075h18.393m0-215.075V624.075m73.574,0V409m36.787,0V624.075m91.967,0V409m0,215.075H-96.672m18.393,0h18.393M-78.279,409H-96.672m18.393,0h18.393m-55.18,0V624.075m0-215.075h-18.393m18.393,0h18.393m-18.393,215.075h-18.393m18.393,0h18.393m-36.787,0V409m36.787,0V624.075m55.18,0V409m0,215.075H-23.1m-18.393,0H-59.885M-41.492,409H-23.1m-18.393,0H-59.885m36.787,0V624.075m-36.787,0V409" transform="translate(299 -195.11)" fill="none" stroke="#fff" stroke-width="0.5"/>
        <path id="Path_11560" data-name="Path 11560" d="M33.642,212V426.533m0-214.533H52.036m-18.393,0H15.249M33.642,426.533H52.036m-18.393,0H15.249M180.79,212V426.533m0-214.533H162.4m18.393,0h18.393M180.79,426.533H162.4m18.393,0h18.393M107.216,212V426.533m0-214.533H88.823m18.393,0H125.61M107.216,426.533H88.823m18.393,0H125.61M144,212V426.533M144,212H125.61M144,212H162.4M144,426.533H125.61m18.393,0H162.4M70.429,212V426.533m0-214.533H88.823m-18.393,0H52.036M70.429,426.533H88.823m-18.393,0H52.036M88.823,212V426.533M52.036,212V426.533m73.574,0V212m36.787,0V426.533m91.967,0V212m0,214.533H235.97m18.393,0h18.393M254.363,212H235.97m18.393,0h18.393m-55.18,0V426.533m0-214.533H199.183m18.393,0H235.97M217.576,426.533H199.183m18.393,0H235.97m-36.787,0V212m36.787,0V426.533m55.18,0V212m0,214.533h18.393m-18.393,0H272.757M291.15,212h18.393m-18.393,0H272.757m36.787,0h18.393V426.533H309.544m0-214.533V426.533m-36.787,0V212M-113.5,212V426.533m0-214.533H-131.9m18.393,0h18.393M-113.5,426.533H-131.9m18.393,0h18.393M-187.078,212V426.533m0-214.533h-18.393m18.393,0h18.393m-18.393,214.533h-18.393m18.393,0h18.393M-150.291,212V426.533m0-214.533h-18.393m18.393,0H-131.9m-18.393,214.533h-18.393m18.393,0H-131.9M-223.865,212V426.533m0-214.533h18.393m-18.393,0h-18.393m18.393,0H-131.9m-91.967,214.533h18.393m-18.393,0h-18.393M-205.472,212V426.533M-242.259,212h-18.393V426.533h18.393m0-214.533V426.533m73.574,0V212m36.787,0V426.533m91.967,0V212m0,214.533H-58.325m18.393,0h18.393M-39.931,212H-58.325m18.393,0h18.393m-55.18,0V426.533m0-214.533H-95.111m18.393,0h18.393M-76.718,426.533H-95.111m18.393,0h18.393m-36.786,0V212m36.786,0V426.533m55.18,0V212m0,214.533H15.249m-18.393,0H-21.538M-3.144,212H15.249m-18.393,0H-21.538m36.787,0V426.533m-36.787,0V212" transform="translate(302.288 -212)" fill="none" stroke="#fff" stroke-width="0.5"/>
        <path id="Path_11561" data-name="Path 11561" d="M282.1,409.5V623.933H-213" transform="translate(306.373 -195.067)" fill="none" stroke="#fb6233" stroke-width="1.3"/>
        <path id="Path_11562" data-name="Path 11562" d="M327.937,212V426.533H-260.652V212H327.937Z" transform="translate(302.288 -212)" fill="none" stroke="#fb6233" stroke-width="1.3"/>
        <rect id="Rectangle_201" data-name="Rectangle 201" width="157.106" height="177.735" transform="translate(576.905 410.788) rotate(180)" fill="#0d0d0d" stroke="#ff6f43" stroke-width="1.3"/>
        <rect id="Rectangle_202" data-name="Rectangle 202" width="154.174" height="178.061" transform="translate(499.981 194.889) rotate(180)" fill="#0d0d0d" stroke="#ff6f43" stroke-width="1"/>
        <path id="Path_11563" data-name="Path 11563" d="M32,266H54.258v4.343H36.886v17.915H32Z" transform="translate(327.378 -207.37)" fill="none" stroke="#ff6f43" stroke-width="0.5"/>
        <path id="Path_11564" data-name="Path 11564" d="M32,351.758H54.258v-4.343H36.886V329.5H32Z" transform="translate(327.378 -201.926)" fill="none" stroke="#ff6f43" stroke-width="0.5"/>
        <path id="Path_11565" data-name="Path 11565" d="M150.758,266H128.5v4.343h17.372v17.915h4.886Z" transform="translate(335.652 -207.37)" fill="none" stroke="#ff6f43" stroke-width="0.5"/>
        <path id="Path_11566" data-name="Path 11566" d="M150.758,351.758H128.5v-4.343h17.372V329.5h4.886Z" transform="translate(335.652 -201.926)" fill="none" stroke="#ff6f43" stroke-width="0.5"/>
        <path id="Path_11567" data-name="Path 11567" d="M74.5,311.586H92.143m17.643,0H92.143m0,0V291.5m0,20.086v20.086" transform="translate(331.022 -205.184)" fill="none" stroke="#fff" stroke-width="0.5"/>
        <path id="Path_11568" data-name="Path 11568" d="M41.372,232H24v17.915M41.372,400.289H24V382.374M151.031,232H168.4v17.915M151.031,400.289H168.4V382.374" transform="translate(326.693 -210.285)" fill="none" stroke="#fff" stroke-width="1"/>
        <path id="Path_11569" data-name="Path 11569" d="M113.839,439H98v16.412m15.839,137.762H98V576.762M216.792,439h15.839v16.412M216.792,593.174h15.839V576.762" transform="translate(333.037 -192.538)" fill="none" stroke="#fff" stroke-width="1"/>
      </g>
    </g>
  </g>
</svg>
