<svg xmlns="http://www.w3.org/2000/svg" xmlns:xlink="http://www.w3.org/1999/xlink" width="344" height="697" viewBox="0 0 344 697">
  <defs>
    <clipPath id="clip-path">
      <rect id="Rectangle_207" data-name="Rectangle 207" width="344" height="697" transform="translate(-0.155)" fill="#fff"/>
    </clipPath>
  </defs>
  <g id="Venture_Funds" data-name="Venture Funds" transform="translate(0.155)" clip-path="url(#clip-path)">
    <g id="_60005cd9f1925877ced48822_venture-narrow" data-name="60005cd9f1925877ced48822_venture-narrow" transform="translate(-341.829 0)">
      <rect id="Rectangle_204" data-name="Rectangle 204" width="342" height="695" transform="translate(343.674)" fill="#0d0d0d"/>
      <g id="Group_17392" data-name="Group 17392" transform="translate(0 230.176)">
        <path id="Path_11570" data-name="Path 11570" d="M-24.093,425.521V212m0,213.521H-42.4m18.307,0H-5.787M-24.093,212H-42.4m18.307,0H-5.787M-170.546,425.521V212m0,213.521h18.307m-18.307,0h-18.308M-170.546,212h18.307m-18.307,0h-18.308M-97.32,425.521V212m0,213.521h18.306m-18.306,0h-18.307M-97.32,212h18.306m-18.306,0h-18.307m-18.307,213.521V212m0,213.521h18.307m-18.307,0H-152.24M-133.933,212h18.307m-18.307,0H-152.24m91.533,213.521V212m0,213.521H-79.013m18.307,0H-42.4M-60.707,212H-79.013m18.307,0H-42.4M-79.013,425.521V212M-42.4,425.521V212m-73.226,0V425.521m-36.613,0V212m-91.534,0V425.521m0-213.521h18.307m-18.307,0H-262.08m18.307,213.521h18.307m-18.307,0H-262.08m54.92,0V212m0,213.521h18.307m-18.307,0h-18.307M-207.16,212h18.307m-18.307,0h-18.307m36.613,0V425.521m-36.613,0V212m-54.92,0V425.521m0-213.521h-18.307m18.307,0h18.307m-18.307,213.521h-18.307m18.307,0h18.307m-36.613,0H-317V212h18.307m0,213.521V212m36.613,0V425.521m384.44,0V212m0,213.521h18.307m-18.307,0H104.053M122.36,212h18.307m-18.307,0H104.053m91.533,213.521V212m0,213.521h18.307m-18.307,0H177.28M195.586,212h18.307m-18.307,0H177.28M158.973,425.521V212m0,213.521H177.28m-18.307,0H140.667M158.973,212H177.28m-18.307,0H140.667M232.2,425.521V212m0,213.521H213.893m18.307,0h18.307m-18.307,0H140.667M232.2,212H213.893m18.307,0h18.307M213.893,425.521V212m36.613,213.521h18.307V212H250.506m0,213.521V212m-73.226,0V425.521m-36.613,0V212m-91.534,0V425.521m0-213.521H67.44m-18.307,0H30.827M49.133,425.521H67.44m-18.307,0H30.827m54.92,0V212m0,213.521h18.307m-18.307,0H67.44M85.746,212h18.307m-18.307,0H67.44m36.613,0V425.521m-36.613,0V212m-54.92,0V425.521M12.52,212H-5.787m18.307,0H30.827M12.52,425.521H-5.787m18.307,0H30.827m-36.613,0V212m36.613,0V425.521" transform="translate(317 -212)" fill="none" stroke="#fff" stroke-width="0.5"/>
        <path id="Path_11571" data-name="Path 11571" d="M34.606,622.89V409m0,213.89H16.318m18.288,0H52.893M34.606,409H16.318m18.288,0H52.893M-111.7,622.89V409m0,213.89h18.288m-18.288,0h-18.288M-111.7,409h18.288m-18.288,0h-18.288m91.44,213.89V409m0,213.89h18.288m-18.288,0H-56.834M-38.546,409h18.288m-18.288,0H-56.834M-75.121,622.89V409m0,213.89h18.288m-18.288,0H-93.409M-75.121,409h18.288m-18.288,0H-93.409M-1.97,622.89V409m0,213.89H-20.258m18.288,0H16.318M-1.97,409H-20.258m18.288,0H16.318M-20.258,622.89V409M16.318,622.89V409m-73.151,0V622.89m-36.575,0V409m-91.44,0V622.89m0-213.89h18.288m-18.288,0h-18.288m18.288,213.89h18.288m-18.288,0h-18.288m54.864,0V409m0,213.89h18.287m-18.287,0H-166.56M-148.272,409h18.287m-18.287,0H-166.56m36.575,0V622.89m-36.575,0V409m-54.864,0V622.89m0-213.89h-18.287m18.287,0h18.288m-18.288,213.89h-18.287m18.287,0h18.288m-36.575,0H-258V409h18.288m0,213.89V409m36.575,0V622.89m384.045,0V409m0,213.89H199.2m-18.288,0H162.62M180.908,409H199.2m-18.288,0H162.62m91.44,213.89V409m0,213.89h18.288m-18.288,0H235.772M254.06,409h18.288m-18.288,0H235.772M217.485,622.89V409m0,213.89h18.287m-18.287,0H199.2M217.485,409h18.287m-18.287,0H199.2m91.438,213.89V409m0,213.89H272.348m18.287,0h18.288m-18.288,0H199.2M290.635,409H272.348m18.287,0h18.288M272.348,622.89V409m36.575,213.89h18.288V409H308.923m0,213.89V409m-73.151,0V622.89m-36.575,0V409m-91.44,0V622.89m0-213.89h18.288m-18.288,0H89.469m18.288,213.89h18.288m-18.288,0H89.469m54.864,0V409m0,213.89H162.62m-18.287,0H126.045M144.333,409H162.62m-18.287,0H126.045m36.575,0V622.89m-36.575,0V409m-54.864,0V622.89m0-213.89H52.893m18.288,0H89.469M71.181,622.89H52.893m18.288,0H89.469m-36.576,0V409m36.576,0V622.89" transform="translate(322.058 -195.11)" fill="none" stroke="#fff" stroke-width="0.5"/>
        <path id="Path_11572" data-name="Path 11572" d="M-315.812,425.682V212H268.454V425.682H-315.812Z" transform="translate(317.102 -212)" fill="none" stroke="#fb6233" stroke-width="1.294"/>
        <path id="Path_11573" data-name="Path 11573" d="M-235,622.89V409H325.239V622.89H-235Z" transform="translate(324.03 -195.11)" fill="none" stroke="#fb6233" stroke-width="1"/>
        <rect id="Rectangle_205" data-name="Rectangle 205" width="132.46" height="271.434" transform="translate(363.178 388.15) rotate(-90)" fill="#0d0d0d" stroke="#ff6f43" stroke-width="1"/>
        <path id="Path_11574" data-name="Path 11574" d="M196.621,537.06l-.009-.543h.009ZM57.435,518.812h-.543a.543.543,0,0,1,.674-.527Zm0,7.82.131.527a.543.543,0,0,1-.674-.527Zm0-10.688.131.527a.544.544,0,0,1-.674-.527ZM125.459,538.1l-.009-.543ZM37.9,570.429l.22.5-.763.338v-.834Zm0-6.778h-.543v-.236l.173-.161Zm0-49.662v.543h-.543v-.543Zm158.721-26.982v.543h-.009ZM57.435,505.256l.131.527a.542.542,0,0,1-.674-.527Zm0-7.821h-.543a.543.543,0,0,1,.674-.527Zm0,10.688h-.543a.543.543,0,0,1,.674-.527ZM37.9,453.639h-.543V452.8l.763.338Zm0,6.778-.37.4-.173-.161v-.236Zm0,49.661h-.543v-.543H37.9Zm4.326,49.537-.37-.4.013-.011Zm0-95.163-.358.408-.013-.011Zm26.245,74.48.008.543Zm0-53.8.008-.543Zm179.048,40.323.208.5Zm0-26.848.208-.5ZM65.265,538.972V524.547H66.35v14.425Zm0-14.425V520.9H66.35v3.649Zm0-3.649v-7.039H66.35V520.9Zm.412.527L57.3,519.339l.262-1.053,8.372,2.085Zm-7.7-2.612v7.82H56.893v-7.82Zm7.96,6.261-8.372,2.086-.262-1.053,8.372-2.086Zm0-10.688-8.372,2.086-.262-1.054,8.372-2.086Zm59.512,23.172,71.162-1.04.016,1.086-71.162,1.04ZM37.358,570.429v-6.778h1.086v6.778Zm20.621-56.44v1.955H56.893v-1.955Zm-.543.543H42.226v-1.086H57.435Zm-15.209,0H37.9v-1.086h4.326ZM66.35,485.1v14.425H65.265V485.1Zm0,14.425v3.649H65.265v-3.649Zm0,3.649v7.039H65.265V503.17Zm-.412.527-8.372,2.086-.262-1.053,8.372-2.086Zm-9.046,1.559v-7.821h1.086v7.821Zm8.784-5.208L57.3,497.962l.262-1.053,8.372,2.086Zm0,10.688L57.3,508.65l.262-1.053,8.372,2.086Zm59.79-25.311,71.162,1.04-.016,1.086-71.162-1.04ZM38.443,453.639v6.778H37.358v-6.778Zm18.449,56.44v-1.955h1.086v1.955Zm.543.543H42.226v-1.086H57.435Zm-15.209,0H37.9v-1.086h4.326Zm83.418,27.989L42.412,569.023,42.04,568l83.232-30.412Zm-83.2,30.4-4.326,1.916-.44-.992,4.326-1.916Zm-4.916-5.754,4.326-4.037.741.794-4.326,4.037Zm4.338-4.048L65.45,538.564l.715.817L42.584,560.024Zm-.185,9.306v-8.9h1.086v8.9ZM38.271,460.02l4.326,4.036-.741.795-4.326-4.037Zm4.313,4.025,23.581,20.643-.715.816L41.869,464.861Zm82.688,22.432L42.04,456.065l.373-1.021,83.232,30.413ZM42.006,456.051l-4.326-1.916.44-.992,4.326,1.916Zm-.323,8.4v-8.9h1.086v8.9ZM65.8,538.429l2.663-.039.016,1.086-2.663.039Zm2.663-.039,56.988-.833.016,1.086-56.988.833Zm-2.647-53.837,2.663.039-.016,1.086-2.663-.039Zm2.663.039,56.988.833-.016,1.086-56.988-.833Zm-.551,54.341v-53.8h1.086v53.8ZM41.683,513.989v-3.911h1.086v3.911Zm23.581-.13v-3.65H66.35v3.65Zm-7.286-3.78v3.911H56.893v-3.911Zm-20.621,3.911v-3.911h1.086v3.911Zm159.264,22.528c13.079,0,35.214-5.1,50.688-11.56l.418,1c-15.567,6.5-37.845,11.645-51.106,11.645Zm50.688-11.56a61.981,61.981,0,0,0,12.44-6.61,16.815,16.815,0,0,0,3.509-3.3,5.136,5.136,0,0,0,1.192-3.011h1.086a6.2,6.2,0,0,1-1.408,3.66,17.872,17.872,0,0,1-3.735,3.528,62.968,62.968,0,0,1-12.666,6.737Zm-50.688-38.493c13.26,0,35.538,5.146,51.106,11.643l-.418,1c-15.474-6.459-37.609-11.56-50.688-11.56Zm51.106,11.643a63.016,63.016,0,0,1,12.666,6.738,17.841,17.841,0,0,1,3.735,3.527,6.2,6.2,0,0,1,1.408,3.66H264.45a5.136,5.136,0,0,0-1.192-3.011,16.818,16.818,0,0,0-3.509-3.3,61.933,61.933,0,0,0-12.44-6.61Zm-.751,27.35V498.61h1.086v26.848Z" transform="translate(347.381 -191.355)" fill="#fff"/>
        <path id="Path_11575" data-name="Path 11575" d="M127.667,477.512V466.7h46.5v10.814m-44.337-8.651-4.326-4.326m50.825,4.326L172,464.535m74.616,21.628h22.709m0,0v49.744m0-49.744,2.163,2.163m-2.163-2.163L267.166,484M246.62,535.907h22.709m0,0,2.163,2.163m-2.163-2.163-2.163-2.163M131.992,511.036a10.163,10.163,0,0,0,10.169,10.158h18.545a10.159,10.159,0,1,0,0-20.317H142.161A10.164,10.164,0,0,0,131.992,511.036Z" transform="translate(354.938 -190.349)" fill="none" stroke="#ff6f43" stroke-width="0.5"/>
        <path id="Path_11576" data-name="Path 11576" d="M65.805,538.968l-.36-.407a.544.544,0,0,1,.352-.136Zm59.651-.872-.009-.543a.543.543,0,0,1,.2,1.052ZM37.9,570.425l.188.509-.731.269v-.778Zm0-6.778h-.543V563.4l.183-.162Zm0-49.662v.543h-.543v-.543Zm27.907-28.894-.008.543a.54.54,0,0,1-.352-.137Zm59.651.872.188-.509a.543.543,0,0,1-.2,1.052ZM37.9,453.635h-.543v-.78l.731.27Zm0,6.778-.36.406-.183-.162v-.244Zm0,49.661h-.543v-.543H37.9Zm2.016,59.606-.188-.509h0Zm0-7.816-.36-.406h0Zm0-99.669-.36.407Zm0-7.816-.188.509h0ZM37.356,570.425v-6.778h1.086v6.778Zm20.078-55.9H39.914v-1.086H57.433Zm-17.519,0H37.9v-1.086h2.016Zm-1.473-60.893v6.778H37.356v-6.778Zm18.992,56.983H39.914v-1.086H57.433Zm-17.519,0H37.9v-1.086h2.016Zm85.731,27.988L40.1,570.189l-.376-1.018,85.542-31.584ZM40.1,570.189l-2.016.745-.376-1.018,2.016-.745Zm-2.563-6.949,2.016-1.783.719.813-2.016,1.783Zm2.016-1.783,25.891-22.9.719.814-25.891,22.9Zm-1.3-101.452,2.016,1.783-.719.813-2.016-1.783Zm2.016,1.783,25.891,22.9-.719.813L39.555,462.6Zm84.994,24.684L39.726,454.887l.376-1.018,85.543,31.585ZM39.726,454.887l-2.016-.744.376-1.018,2.016.744ZM168.5,499.149H149.016v-1.086H168.5Zm-19.484,25.762H168.5V526H149.016Zm-12.9-12.881a12.888,12.888,0,0,0,12.9,12.881V526a13.974,13.974,0,0,1-13.981-13.967Zm12.9-12.881a12.888,12.888,0,0,0-12.9,12.881h-1.086a13.974,13.974,0,0,1,13.981-13.967ZM181.4,512.03a12.888,12.888,0,0,0-12.9-12.881v-1.086a13.974,13.974,0,0,1,13.981,13.967Zm1.086,0A13.974,13.974,0,0,1,168.5,526v-1.086a12.888,12.888,0,0,0,12.9-12.881ZM37.356,513.985v-3.911h1.086v3.911ZM65.8,538.425l59.651-.872.016,1.086-59.651.872Zm59.651-51.919L65.8,485.634l.016-1.086,59.651.872Z" transform="translate(347.381 -191.35)" fill="#fff"/>
        <rect id="Rectangle_206" data-name="Rectangle 206" width="127.957" height="182.706" transform="translate(377.101 17.51)" fill="#0d0d0d" stroke="#ff6f43" stroke-width="0.647"/>
        <path id="Path_11577" data-name="Path 11577" d="M109.622,268.265l5.156,1.536-3.014,12.507m-2.142-14.043,3.014-12.505m-3.014,12.505L99.31,265.193m0,0-5.156-1.535L83.6,307.43l3.75,1.117M99.31,265.193l3.014-12.505m0,0,10.312,3.072m-10.312-3.072-3.281-.978,1.507-6.253,16.875,5.027-1.508,6.253-3.281-.977m-12.158,56.7,3.75,1.117,5.024-20.843m-8.774,19.726-3.014,12.507m3.014-12.507-13.125-3.909m10.11,16.415-1.507,6.253-13.125-3.909,1.507-6.254m13.125,3.91-13.125-3.91m3.014-12.506-3.014,12.506m27.425-38.744,13.124,3.909c8.284,2.468,13.2,11.934,10.98,21.144l-9.446,39.192m-14.658-64.244-2.512,10.422m0,0,5.625,1.675c6.213,1.85,9.9,8.95,8.235,15.857L115.173,343.2m-8.236,9.158c1.664-6.907,8.051-11.006,14.264-9.155s9.9,8.95,8.235,15.857a12.354,12.354,0,0,1-8.236,9.157m-14.263-15.859-37.5-11.17m37.5,11.17a13.945,13.945,0,0,0,3.014,12.509m0,0a11.386,11.386,0,0,0,5.221,3.348,10.472,10.472,0,0,0,6.028,0m-11.249-3.351-1.911,7.926L64.916,359.948l-5.04,17.067m57.549,0,3.775-8.8M82.832,338.531,62.3,318h-24m86.588-43.8,5.935-5.935h18.344m0,119.539H42.406v-10.79h106.76Z" transform="translate(347.462 -209.132)" fill="none" stroke="#fb6233" stroke-width="0.5"/>
        <path id="Path_11578" data-name="Path 11578" d="M106.612,352.358l-37.5-11.17M83.279,307.43l10.55-43.771,5.156,1.535,10.313,3.072,5.155,1.536-3.014,12.507-2.511,10.422L103.9,313.573l-3.75-1.117-13.125-3.909ZM102,252.688l10.312,3.072,3.281.977,1.507-6.253-16.874-5.027-1.507,6.253Zm46.843,124.167V387.8H42.082v-10.95Z" transform="translate(347.786 -209.132)" fill="none" stroke="#fff" stroke-width="1"/>
      </g>
    </g>
  </g>
</svg>
