<svg xmlns="http://www.w3.org/2000/svg" width="210.223" height="38.809" viewBox="0 0 210.223 38.809">
  <g id="westpoint_logo" transform="translate(-24.875 -29.375)">
    <path id="Path_1528" data-name="Path 1528" d="M92.132,106.791l-5.045,18.018H85.526L80,104.509h1.562l4.8,18.138,4.925-18.138h1.682l4.8,18.138,5.165-18.138H104.5l-6.006,20.3H96.817Zm33.394-2.282v1.321H115.2V113.4h9.85v1.321H115.2v8.649h10.811l-.24,1.321H113.634v-20.18Zm21.982,4.925c0-6.727-12.493-7.087-12.493-.12.12,1.922,0,3.844,6.246,5.526.961.36,4.925.841,4.925,4.685,0,2.162-1.2,3.964-4.685,3.964s-5.165-1.8-5.646-4.2h-1.682c.6,5.165,5.526,5.646,7.207,5.646,1.922,0,6.607-.721,6.607-5.405,0-4.324-3.9-5.706-6.847-6.366-3.243-1.081-4.445-2.042-4.445-3.844s1.441-3.6,4.445-3.6,4.8,2.282,4.8,3.724Zm38.439-4.925H178.26v20.18h1.562V115.92h6.126c3.363,0,5.406-2.883,5.406-5.886A5.486,5.486,0,0,0,185.948,104.509Zm.12,9.85h-6.246V105.95h6.246a4.243,4.243,0,0,1,3.6,4.2C189.671,112.677,188.23,114.359,186.068,114.359Zm41.442-9.85h1.441v20.18H227.51Zm12.733,20.18v-20.18h2.282l11.412,18.138V104.629l1.441-.12v20.18h-2.162L241.8,106.07v18.619Zm38.439-20.18H264.027v1.441h6.607v18.739H272.2V105.95h6.487Zm-109.011.06H155.016v1.441h6.607v18.739h1.562V106.01h6.487Z" transform="translate(-48.393 -65.759)" fill="#fff" stroke="#f4f4f4" stroke-miterlimit="10" stroke-width="0.25"/>
    <path id="Path_1529" data-name="Path 1529" d="M234.973,68.059H25V29.5H234.973ZM26.562,66.5h206.85V31.062H26.562Z" fill="#fff" stroke="#f4f4f4" stroke-miterlimit="10" stroke-width="0.25"/>
    <path id="Path_1530" data-name="Path 1530" d="M1086.829,104.5c-5.345,0-8.829,4.324-8.829,10.27,0,6.306,3.484,10.511,8.829,10.511s8.829-4.2,8.829-10.511C1095.658,108.344,1092.174,104.5,1086.829,104.5Zm0,19.28c-4.264,0-7.207-4.024-7.207-9.009,0-5.225,2.943-8.919,7.3-8.919,4.024,0,7.117,3.453,7.117,8.919C1094.036,120.356,1091.093,123.78,1086.829,123.78Z" transform="translate(-926.512 -65.991)" fill="#fff" stroke="#f4f4f4" stroke-miterlimit="10" stroke-width="0.25"/>
  </g>
</svg>
