<svg xmlns="http://www.w3.org/2000/svg" width="706" height="706" viewBox="0 0 706 706">
  <g id="world" transform="translate(-0.5 -0.5)">
    <path id="Path_11483" data-name="Path 11483" d="M217.7,28.109c-1.348,5.411-6.356,16.232-15.6,16.232-11.558,0-26.582,14.447-23.114,15.6s-4.624,10.4,0,9.824,19.648-19.07,16.758-11.557S168,95.193,175.516,87.68s41.606-26,38.14-27.738,10.4-17.336,15.6-17.336,7.512,13.869,1.734,15.6,14.446-1.734,14.446,0-1.156,26,3.468,26S214.812,104.439,211.344,97.5s-18.492,19.07-9.246,17.336,15.6-6.356,15.6-2.312-28.893,15.025-30.049,13.869c-.924-.925,2.7-5.394,4.622-7.512-5.393.77-16.989,3.582-20.225,8.668-4.046,6.356-26.582,21.381-31.206,21.381s-12.712,24.27-26,24.27-25.426,51.431-31.2,50.853,5.2-20.226,4.623-27.16-6.934,1.156-6.934-3.468-9.246,1.734-12.713,0c-2.774-1.386-3.852-5.2-4.045-6.934-8.09,10.016-24.386,31.782-24.848,38.718-.578,8.668-10.979,32.36-5.2,31.2s7.512,0,8.668-2.312,5.2-13.868,8.668-13.868,6.934-1.156,3.467,7.512S40.3,274.332,44.34,275.488s12.135,1.734,12.135,9.824S48.963,307.848,50.7,313.05s5.2,13.868,8.09,12.712,5.2-4.622,9.246-1.734,3.467,9.824,6.357,6.357S76.7,317.094,81.9,316.516s9.824-8.668,14.447-7.512-6.357,9.246-2.312,9.824,6.935-7.512,9.246-6.934-.578,6.356,3.467,6.356-.578,5.778,3.467,5.778,20.225-13.29,30.627,0,12.136,36.984,25.426,36.984,30.628,7.512,34.672,15.024,5.779,13.87,11.558,17.336,0,13.292,5.778,16.181,11.558,5.2,23.693,12.713,11.557,3.468,19.647,4.046,13.292,1.156,19.07,8.668,11.558,10.98,16.758,8.668,10.4,19.648.578,29.471-22.536,15.6-21.38,24.271,4.622,28.893-5.2,39.872S251.8,549.4,237.348,555.176s-1.734,12.714-8.09,21.382-15.024,16.18-23.114,19.647,1.734,19.07-1.156,20.8-14.447-5.778-15.6-2.89,5.778,15.025,0,16.181-4.624-8.09-6.935-5.779-13.868,21.382-31.782-10.4-35.25-65.3-35.828-95.926S82.48,499.122,76.7,467.34s-31.783-52.586-20.225-62.988c-2.311-9.438-4.739-28.546,4.045-29.471,10.98-1.156,2.889-16.759,5.2-25.427s2.311-22.536-2.889-19.069-8.09,9.246-8.09,4.622-10.98-16.758-10.98-21.958,3.467-23.115-2.889-22.538-6.934-15.024-7.512-21.958-6.934,10.979-9.246-1.734S21.8,235.614,28.16,225.214c5.085-8.322,13.271-31.591,16.728-42.185M217.7,28.109A353.855,353.855,0,0,0,44.888,183.028M217.7,28.109q13.591-5.678,27.738-10.236M44.888,183.028A350.914,350.914,0,0,0,1,353.5C1,541.978,148.923,695.906,335.008,705.523M245.438,17.872A352.267,352.267,0,0,1,353.5,1q17.81,0,35.18,1.734M245.438,17.872c-2.311,7.667-6.24,23.578-3.467,25.89,3.467,2.889,1.156,0,5.2-2.889s8.09,8.668,10.4,5.2,1.734-17.336,4.622-14.447,7.513,10.98,9.246,9.246-12.135-17.336,3.468-17.336S301.492,21.225,293.4,36.25s2.889,27.16,11.558,23.115,24.848-30.049,41.028-30.049S368.524,53.008,379.5,51.275s15.024-6.934,11.558-10.98-29.472-1.156-24.271-9.246,25.427,4.623,27.738,2.311S360.3,6.2,388.68,2.734m0,0a350.851,350.851,0,0,1,67.68,13.51m0,0c13.1,7.439,36.06,22.318,23.115,22.318-16.18,0-34.094,15.025-24.848,18.492s32.938,29.471,24.848,33.516-1.734,14.447-8.09,13.869-22.537,2.889-15.025,4.045,31.783,20.8,24.849,24.848-30.05-15.024-31.783-4.046,5.2,20.226,1.734,20.226,3.468,6.934,3.468,13.292,12.712,1.733,12.712,6.356,8.09,10.4,2.312,13.868-13.292,7.512-15.024,28.316-12.136,1.734-19.648,26-19.648,23.692-9.824,41.606-9.824,15.6,0,41.607,41.028,39.872,52.008,55.475,9.824-4.044,28.894-4.044,34.672,2.89,34.094-12.714,8.668,2.312,19.648,3.468-2.89,11.558,8.09,11.558,16.758-9.824,16.758,4.044-6.357,35.25,4.044,45.074,9.246,16.758,7.512,38.718-15.6,36.406-11.557,65.3-8.09,6.934-5.2,38.14-19.647,28.316-5.2,28.316,40.45-19.07,49.7-39.3S657.46,530.906,657.46,515.3s27.159-36.984,27.159-60.676,10.98-49.12,10.98-76.279,6.9-49.7,4.894-87.258M456.36,16.244A352.21,352.21,0,0,1,597.646,99.238M700.493,291.09A354.705,354.705,0,0,1,706,353.5c0,160.587-107.384,296.094-254.262,338.629M700.493,291.09a349.865,349.865,0,0,0-23.964-78.911M335.008,705.523q9.185.476,18.492.477a352.635,352.635,0,0,0,98.238-13.871m-116.73,13.394c3.852-4.078,16.3-12.237,35.25-12.237,23.692,0,53.164-9.245,62.988-2.311,7.858,5.547,15.6,3.081,18.492,1.154M664.006,186.5c-2.953-1.348-7.587-2.312-2.5,4.622s12.136,16.93,15.024,21.061M664.006,186.5q6.763,12.547,12.522,25.684M664.006,186.5a352.5,352.5,0,0,0-23.4-37.562m0,0c-4.975-.385-14.928-3.12-14.928-10.98,0-9.823-21.38-23.114-21.958-26.581-.463-2.774-4.24-9.246-6.072-12.135m42.958,49.7a354.432,354.432,0,0,0-42.958-49.7M65.143,238.5c1.734-2.5,6.7-6.588,12.713-2.89,7.512,4.624,5.779,16.181,13.869,17.336s5.2,4.624-2.311,4.624,1.156-3.468-1.156-3.468S77.279,243.7,76.7,240.238,60.52,245.438,65.143,238.5Zm35.828,21.382c1.156,6.356,0,8.668-4.623,8.668s6.357,3.467,13.869,2.889,8.668-.578,8.668-2.311S100.582,255.262,100.971,259.886Zm22.537,12.135c5.778-.578,9.246.578,6.356,3.468S118.308,272.6,123.508,272.02ZM81.9,265.086c2.221.4,4.045,5.778,0,5.778s-4.045-3.467-2.889-4.622A3,3,0,0,1,81.9,265.086ZM644.746,207.3c9.824-8.09,17.336,23.692,21.958,30.048s16.181,18.492,18.492,31.206,6.935,22.536,3.468,19.647-9.246-19.069-14.446-24.848-4.624-15.6-9.824-21.958-9.246-16.758-14.447-23.693S641.278,211.344,644.746,207.3Zm-54.9-58.365c12.136,15.025,16.18,15.025,20.226,12.136s12.136,8.668,12.712-1.734,2.312,16.18,5.779,16.18-1.156,19.648-7.512,17.336-19.648-13.29-25.426-10.4,3.466,3.468,0,12.714-13.87,9.246-16.759,0S566.156,190.54,559.8,186.5s-7.513,1.156-8.668-10.98-2.89-10.98-10.98-10.98-26-2.311-34.094,2.89-17.336,9.246-23.115,8.09-.578-5.778,9.246-10.98,29.472-17.336,13.869-13.868-15.025-10.4-7.512-10.98,29.471-1.156,29.471,9.246-1.734-6.356,7.512-5.2,8.668,17.336,15.6,17.336,16.18-2.89,6.356-12.136S510.68,125.82,514.148,121.2s24.848,4.046,38.139,13.292S565,159.336,575.4,159.336s-9.824-17.336-.578-18.492,21.38,0,15.024-4.622-20.226-24.849-14.446-24.849,14.446,12.135,14.446,7.513-12.134-11.558-6.934-14.447,34.672,27.738,29.472,28.893-16.758-6.356-16.758,0S594.472,151.824,589.848,148.934Zm-115.574-86.1c13.292,13.869,22.537,10.4,31.783,12.135s10.979-14.447,0-17.914-8.183,12.135-18.492,10.4C479.318,66.068,475.268,63.8,474.274,62.832Zm-43.34,12.135c-7.974-.254-12.712,20.225-2.889,20.225S445.96,92.3,440.758,83.635C436.6,76.7,436.048,75.13,430.934,74.967Zm5.2-15.025c-3.468,3.852-9.362,11.557-5.2,11.557,5.2,0,9.824-1.156,9.824,3.467s0,8.668,5.2,8.668,5.2,4.045,5.2,9.246,8.09,4.045,11.558,4.045S473.7,87.1,465.028,85.369s-6.356-10.4-13.868-10.4-6.934-8.668-9.246-8.668C440.064,66.3,437.29,62.061,436.136,59.943Zm-214.39,47.963c9.246-5.779,21.958-17.914,28.894-17.336s-10.4,9.824-5.2,19.07-5.2,0-12.712,0S215.968,111.9,221.746,107.906Z" transform="translate(0 0)" fill="none" stroke="#c4c4c4" stroke-width="1"/>
    <circle id="Ellipse_421" data-name="Ellipse 421" cx="4.174" cy="4.174" r="4.174" transform="translate(93.578 362.858)" fill="none" stroke="#ff6f43" stroke-width="1"/>
    <circle id="Ellipse_422" data-name="Ellipse 422" cx="4.174" cy="4.174" r="4.174" transform="translate(89.518 330.382)" fill="none" stroke="#ff6f43" stroke-width="1"/>
    <circle id="Ellipse_423" data-name="Ellipse 423" cx="4.174" cy="4.174" r="4.174" transform="translate(226.188 492.762)" fill="none" stroke="#ff6f43" stroke-width="1"/>
    <circle id="Ellipse_424" data-name="Ellipse 424" cx="4.174" cy="4.174" r="4.174" transform="translate(177.474 549.594)" fill="none" stroke="#ff6f43" stroke-width="1"/>
    <circle id="Ellipse_425" data-name="Ellipse 425" cx="4.174" cy="4.174" r="4.174" transform="translate(130.113 117.934)" fill="none" stroke="#ff6f43" stroke-width="1"/>
    <circle id="Ellipse_426" data-name="Ellipse 426" cx="4.174" cy="4.174" r="4.174" transform="translate(172.062 98.99)" fill="none" stroke="#ff6f43" stroke-width="1"/>
    <circle id="Ellipse_427" data-name="Ellipse 427" cx="4.174" cy="4.174" r="4.174" transform="translate(189.652 104.403)" fill="none" stroke="#ff6f43" stroke-width="1"/>
    <circle id="Ellipse_428" data-name="Ellipse 428" cx="4.174" cy="4.174" r="4.174" transform="translate(150.41 130.113)" fill="none" stroke="#ff6f43" stroke-width="1"/>
    <circle id="Ellipse_429" data-name="Ellipse 429" cx="4.174" cy="4.174" r="4.174" transform="translate(130.113 139.586)" fill="none" stroke="#ff6f43" stroke-width="1"/>
    <circle id="Ellipse_430" data-name="Ellipse 430" cx="4.174" cy="4.174" r="4.174" transform="translate(52.983 178.827)" fill="none" stroke="#ff6f43" stroke-width="1"/>
    <circle id="Ellipse_431" data-name="Ellipse 431" cx="4.174" cy="4.174" r="4.174" transform="translate(70.574 149.058)" fill="none" stroke="#ff6f43" stroke-width="1"/>
    <circle id="Ellipse_432" data-name="Ellipse 432" cx="4.174" cy="4.174" r="4.174" transform="translate(109.815 104.403)" fill="none" stroke="#ff6f43" stroke-width="1"/>
    <circle id="Ellipse_433" data-name="Ellipse 433" cx="4.174" cy="4.174" r="4.174" transform="translate(301.965 8.328)" fill="none" stroke="#ff6f43" stroke-width="1"/>
    <circle id="Ellipse_434" data-name="Ellipse 434" cx="4.174" cy="4.174" r="4.174" transform="translate(476.524 239.719)" fill="none" stroke="#ff6f43" stroke-width="1"/>
    <circle id="Ellipse_435" data-name="Ellipse 435" cx="4.174" cy="4.174" r="4.174" transform="translate(444.047 261.37)" fill="none" stroke="#ff6f43" stroke-width="1"/>
    <circle id="Ellipse_436" data-name="Ellipse 436" cx="4.174" cy="4.174" r="4.174" transform="translate(284.375 261.37)" fill="none" stroke="#ff6f43" stroke-width="1"/>
    <circle id="Ellipse_437" data-name="Ellipse 437" cx="4.174" cy="4.174" r="4.174" transform="translate(485.996 103.05)" fill="none" stroke="#ff6f43" stroke-width="1"/>
    <circle id="Ellipse_438" data-name="Ellipse 438" cx="4.174" cy="4.174" r="4.174" transform="translate(657.849 345.267)" fill="none" stroke="#ff6f43" stroke-width="1"/>
    <circle id="Ellipse_439" data-name="Ellipse 439" cx="4.174" cy="4.174" r="4.174" transform="translate(621.313 438.635)" fill="none" stroke="#ff6f43" stroke-width="1"/>
    <circle id="Ellipse_440" data-name="Ellipse 440" cx="4.174" cy="4.174" r="4.174" transform="translate(611.84 540.123)" fill="none" stroke="#ff6f43" stroke-width="1"/>
    <circle id="Ellipse_441" data-name="Ellipse 441" cx="4.174" cy="4.174" r="4.174" transform="translate(637.551 174.767)" fill="none" stroke="#ff6f43" stroke-width="1"/>
  </g>
</svg>
